<?xml version="1.0" encoding="utf-8" standalone="no"?>
<!DOCTYPE svg PUBLIC "-//W3C//DTD SVG 1.1//EN"
  "http://www.w3.org/Graphics/SVG/1.1/DTD/svg11.dtd">
<svg xmlns:xlink="http://www.w3.org/1999/xlink" width="857.538472pt" height="391.198468pt" viewBox="0 0 857.538472 391.198468" xmlns="http://www.w3.org/2000/svg" version="1.1">
 <metadata>
  <rdf:RDF xmlns:dc="http://purl.org/dc/elements/1.1/" xmlns:cc="http://creativecommons.org/ns#" xmlns:rdf="http://www.w3.org/1999/02/22-rdf-syntax-ns#">
   <cc:Work>
    <dc:type rdf:resource="http://purl.org/dc/dcmitype/StillImage"/>
    <dc:date>2024-08-05T22:47:49.139304</dc:date>
    <dc:format>image/svg+xml</dc:format>
    <dc:creator>
     <cc:Agent>
      <dc:title>Matplotlib v3.8.2, https://matplotlib.org/</dc:title>
     </cc:Agent>
    </dc:creator>
   </cc:Work>
  </rdf:RDF>
 </metadata>
 <defs>
  <style type="text/css">*{stroke-linejoin: round; stroke-linecap: butt}</style>
 </defs>
 <g id="figure_1">
  <g id="patch_1">
   <path d="M -0 391.198468 
L 857.538472 391.198468 
L 857.538472 0 
L -0 0 
z
" style="fill: #ffffff"/>
  </g>
  <g id="axes_1">
   <g id="patch_2">
    <path d="M 181.634012 142.451183 
C 166.950358 142.451183 152.420799 145.455678 138.941398 151.279375 
C 125.461996 157.103072 113.315668 165.62374 103.251497 176.315895 
C 93.187327 187.00805 85.416547 199.647277 80.418396 213.454094 
C 75.420245 227.260911 73.299628 241.945531 74.187325 256.602328 
C 75.075022 271.259125 78.952403 285.580472 85.580343 298.683148 
C 92.208283 311.785824 101.44767 323.394821 112.728696 332.794192 
C 124.009722 342.193562 137.095612 349.186026 151.179337 353.340347 
C 165.263063 357.494668 180.049025 358.723651 194.625348 356.951504 
L 181.634012 250.094757 
z
" style="fill: #4fc26e"/>
   </g>
   <g id="patch_3">
    <path d="M 205.370017 356.300746 
C 220.497014 354.46165 235.062484 349.431201 248.100333 341.543058 
C 261.138183 333.654915 272.353638 323.087422 281.002803 310.541496 
L 192.378681 249.444 
z
" style="fill: #f2b134"/>
   </g>
   <g id="patch_4">
    <path d="M 281.002803 310.541496 
C 292.141227 294.38481 298.652253 275.485698 299.828662 255.89695 
C 301.005072 236.308201 296.802673 216.765691 287.677923 199.392092 
C 278.553173 182.018493 264.848853 167.466465 248.053504 157.316625 
C 231.258154 147.166785 212.002713 141.800424 192.378671 141.800426 
L 192.378681 249.444 
z
" style="fill: #d15454"/>
   </g>
   <g id="matplotlib.axis_1"/>
   <g id="matplotlib.axis_2"/>
   <g id="text_1">
    <!-- Net power:  -->
    <g transform="translate(7.2 254.279476) scale(0.11 -0.11)">
     <defs>
      <path id="ArialMT-4e" d="M 488 0 
L 488 4581 
L 1109 4581 
L 3516 984 
L 3516 4581 
L 4097 4581 
L 4097 0 
L 3475 0 
L 1069 3600 
L 1069 0 
L 488 0 
z
" transform="scale(0.015625)"/>
      <path id="ArialMT-65" d="M 2694 1069 
L 3275 997 
Q 3138 488 2766 206 
Q 2394 -75 1816 -75 
Q 1088 -75 661 373 
Q 234 822 234 1631 
Q 234 2469 665 2931 
Q 1097 3394 1784 3394 
Q 2450 3394 2872 2941 
Q 3294 2488 3294 1666 
Q 3294 1616 3291 1516 
L 816 1516 
Q 847 969 1125 678 
Q 1403 388 1819 388 
Q 2128 388 2347 550 
Q 2566 713 2694 1069 
z
M 847 1978 
L 2700 1978 
Q 2663 2397 2488 2606 
Q 2219 2931 1791 2931 
Q 1403 2931 1139 2672 
Q 875 2413 847 1978 
z
" transform="scale(0.015625)"/>
      <path id="ArialMT-74" d="M 1650 503 
L 1731 6 
Q 1494 -44 1306 -44 
Q 1000 -44 831 53 
Q 663 150 594 308 
Q 525 466 525 972 
L 525 2881 
L 113 2881 
L 113 3319 
L 525 3319 
L 525 4141 
L 1084 4478 
L 1084 3319 
L 1650 3319 
L 1650 2881 
L 1084 2881 
L 1084 941 
Q 1084 700 1114 631 
Q 1144 563 1211 522 
Q 1278 481 1403 481 
Q 1497 481 1650 503 
z
" transform="scale(0.015625)"/>
      <path id="ArialMT-20" transform="scale(0.015625)"/>
      <path id="ArialMT-70" d="M 422 -1272 
L 422 3319 
L 934 3319 
L 934 2888 
Q 1116 3141 1344 3267 
Q 1572 3394 1897 3394 
Q 2322 3394 2647 3175 
Q 2972 2956 3137 2557 
Q 3303 2159 3303 1684 
Q 3303 1175 3120 767 
Q 2938 359 2589 142 
Q 2241 -75 1856 -75 
Q 1575 -75 1351 44 
Q 1128 163 984 344 
L 984 -1272 
L 422 -1272 
z
M 931 1641 
Q 931 1000 1190 694 
Q 1450 388 1819 388 
Q 2194 388 2461 705 
Q 2728 1022 2728 1688 
Q 2728 2322 2467 2637 
Q 2206 2953 1844 2953 
Q 1484 2953 1207 2617 
Q 931 2281 931 1641 
z
" transform="scale(0.015625)"/>
      <path id="ArialMT-6f" d="M 213 1659 
Q 213 2581 725 3025 
Q 1153 3394 1769 3394 
Q 2453 3394 2887 2945 
Q 3322 2497 3322 1706 
Q 3322 1066 3130 698 
Q 2938 331 2570 128 
Q 2203 -75 1769 -75 
Q 1072 -75 642 372 
Q 213 819 213 1659 
z
M 791 1659 
Q 791 1022 1069 705 
Q 1347 388 1769 388 
Q 2188 388 2466 706 
Q 2744 1025 2744 1678 
Q 2744 2294 2464 2611 
Q 2184 2928 1769 2928 
Q 1347 2928 1069 2612 
Q 791 2297 791 1659 
z
" transform="scale(0.015625)"/>
      <path id="ArialMT-77" d="M 1034 0 
L 19 3319 
L 600 3319 
L 1128 1403 
L 1325 691 
Q 1338 744 1497 1375 
L 2025 3319 
L 2603 3319 
L 3100 1394 
L 3266 759 
L 3456 1400 
L 4025 3319 
L 4572 3319 
L 3534 0 
L 2950 0 
L 2422 1988 
L 2294 2553 
L 1622 0 
L 1034 0 
z
" transform="scale(0.015625)"/>
      <path id="ArialMT-72" d="M 416 0 
L 416 3319 
L 922 3319 
L 922 2816 
Q 1116 3169 1280 3281 
Q 1444 3394 1641 3394 
Q 1925 3394 2219 3213 
L 2025 2691 
Q 1819 2813 1613 2813 
Q 1428 2813 1281 2702 
Q 1134 2591 1072 2394 
Q 978 2094 978 1738 
L 978 0 
L 416 0 
z
" transform="scale(0.015625)"/>
      <path id="ArialMT-3a" d="M 578 2678 
L 578 3319 
L 1219 3319 
L 1219 2678 
L 578 2678 
z
M 578 0 
L 578 641 
L 1219 641 
L 1219 0 
L 578 0 
z
" transform="scale(0.015625)"/>
     </defs>
     <use xlink:href="#ArialMT-4e"/>
     <use xlink:href="#ArialMT-65" x="72.216797"/>
     <use xlink:href="#ArialMT-74" x="127.832031"/>
     <use xlink:href="#ArialMT-20" x="155.615234"/>
     <use xlink:href="#ArialMT-70" x="183.398438"/>
     <use xlink:href="#ArialMT-6f" x="239.013672"/>
     <use xlink:href="#ArialMT-77" x="294.628906"/>
     <use xlink:href="#ArialMT-65" x="366.845703"/>
     <use xlink:href="#ArialMT-72" x="422.460938"/>
     <use xlink:href="#ArialMT-3a" x="455.761719"/>
     <use xlink:href="#ArialMT-20" x="483.544922"/>
    </g>
    <!-- 542.78 MW -->
    <g transform="translate(7.2 265.914038) scale(0.11 -0.11)">
     <defs>
      <path id="ArialMT-35" d="M 266 1200 
L 856 1250 
Q 922 819 1161 601 
Q 1400 384 1738 384 
Q 2144 384 2425 690 
Q 2706 997 2706 1503 
Q 2706 1984 2436 2262 
Q 2166 2541 1728 2541 
Q 1456 2541 1237 2417 
Q 1019 2294 894 2097 
L 366 2166 
L 809 4519 
L 3088 4519 
L 3088 3981 
L 1259 3981 
L 1013 2750 
Q 1425 3038 1878 3038 
Q 2478 3038 2890 2622 
Q 3303 2206 3303 1553 
Q 3303 931 2941 478 
Q 2500 -78 1738 -78 
Q 1113 -78 717 272 
Q 322 622 266 1200 
z
" transform="scale(0.015625)"/>
      <path id="ArialMT-34" d="M 2069 0 
L 2069 1097 
L 81 1097 
L 81 1613 
L 2172 4581 
L 2631 4581 
L 2631 1613 
L 3250 1613 
L 3250 1097 
L 2631 1097 
L 2631 0 
L 2069 0 
z
M 2069 1613 
L 2069 3678 
L 634 1613 
L 2069 1613 
z
" transform="scale(0.015625)"/>
      <path id="ArialMT-32" d="M 3222 541 
L 3222 0 
L 194 0 
Q 188 203 259 391 
Q 375 700 629 1000 
Q 884 1300 1366 1694 
Q 2113 2306 2375 2664 
Q 2638 3022 2638 3341 
Q 2638 3675 2398 3904 
Q 2159 4134 1775 4134 
Q 1369 4134 1125 3890 
Q 881 3647 878 3216 
L 300 3275 
Q 359 3922 746 4261 
Q 1134 4600 1788 4600 
Q 2447 4600 2831 4234 
Q 3216 3869 3216 3328 
Q 3216 3053 3103 2787 
Q 2991 2522 2730 2228 
Q 2469 1934 1863 1422 
Q 1356 997 1212 845 
Q 1069 694 975 541 
L 3222 541 
z
" transform="scale(0.015625)"/>
      <path id="ArialMT-2e" d="M 581 0 
L 581 641 
L 1222 641 
L 1222 0 
L 581 0 
z
" transform="scale(0.015625)"/>
      <path id="ArialMT-37" d="M 303 3981 
L 303 4522 
L 3269 4522 
L 3269 4084 
Q 2831 3619 2401 2847 
Q 1972 2075 1738 1259 
Q 1569 684 1522 0 
L 944 0 
Q 953 541 1156 1306 
Q 1359 2072 1739 2783 
Q 2119 3494 2547 3981 
L 303 3981 
z
" transform="scale(0.015625)"/>
      <path id="ArialMT-38" d="M 1131 2484 
Q 781 2613 612 2850 
Q 444 3088 444 3419 
Q 444 3919 803 4259 
Q 1163 4600 1759 4600 
Q 2359 4600 2725 4251 
Q 3091 3903 3091 3403 
Q 3091 3084 2923 2848 
Q 2756 2613 2416 2484 
Q 2838 2347 3058 2040 
Q 3278 1734 3278 1309 
Q 3278 722 2862 322 
Q 2447 -78 1769 -78 
Q 1091 -78 675 323 
Q 259 725 259 1325 
Q 259 1772 486 2073 
Q 713 2375 1131 2484 
z
M 1019 3438 
Q 1019 3113 1228 2906 
Q 1438 2700 1772 2700 
Q 2097 2700 2305 2904 
Q 2513 3109 2513 3406 
Q 2513 3716 2298 3927 
Q 2084 4138 1766 4138 
Q 1444 4138 1231 3931 
Q 1019 3725 1019 3438 
z
M 838 1322 
Q 838 1081 952 856 
Q 1066 631 1291 507 
Q 1516 384 1775 384 
Q 2178 384 2440 643 
Q 2703 903 2703 1303 
Q 2703 1709 2433 1975 
Q 2163 2241 1756 2241 
Q 1359 2241 1098 1978 
Q 838 1716 838 1322 
z
" transform="scale(0.015625)"/>
      <path id="ArialMT-4d" d="M 475 0 
L 475 4581 
L 1388 4581 
L 2472 1338 
Q 2622 884 2691 659 
Q 2769 909 2934 1394 
L 4031 4581 
L 4847 4581 
L 4847 0 
L 4263 0 
L 4263 3834 
L 2931 0 
L 2384 0 
L 1059 3900 
L 1059 0 
L 475 0 
z
" transform="scale(0.015625)"/>
      <path id="ArialMT-57" d="M 1294 0 
L 78 4581 
L 700 4581 
L 1397 1578 
Q 1509 1106 1591 641 
Q 1766 1375 1797 1488 
L 2669 4581 
L 3400 4581 
L 4056 2263 
Q 4303 1400 4413 641 
Q 4500 1075 4641 1638 
L 5359 4581 
L 5969 4581 
L 4713 0 
L 4128 0 
L 3163 3491 
Q 3041 3928 3019 4028 
Q 2947 3713 2884 3491 
L 1913 0 
L 1294 0 
z
" transform="scale(0.015625)"/>
     </defs>
     <use xlink:href="#ArialMT-35"/>
     <use xlink:href="#ArialMT-34" x="55.615234"/>
     <use xlink:href="#ArialMT-32" x="111.230469"/>
     <use xlink:href="#ArialMT-2e" x="166.845703"/>
     <use xlink:href="#ArialMT-37" x="194.628906"/>
     <use xlink:href="#ArialMT-38" x="250.244141"/>
     <use xlink:href="#ArialMT-20" x="305.859375"/>
     <use xlink:href="#ArialMT-4d" x="333.642578"/>
     <use xlink:href="#ArialMT-57" x="416.943359"/>
    </g>
   </g>
   <g id="text_2">
    <!-- 51.9% -->
    <g transform="translate(101.571781 256.842971) scale(0.11 -0.11)">
     <defs>
      <path id="ArialMT-31" d="M 2384 0 
L 1822 0 
L 1822 3584 
Q 1619 3391 1289 3197 
Q 959 3003 697 2906 
L 697 3450 
Q 1169 3672 1522 3987 
Q 1875 4303 2022 4600 
L 2384 4600 
L 2384 0 
z
" transform="scale(0.015625)"/>
      <path id="ArialMT-39" d="M 350 1059 
L 891 1109 
Q 959 728 1153 556 
Q 1347 384 1650 384 
Q 1909 384 2104 503 
Q 2300 622 2425 820 
Q 2550 1019 2634 1356 
Q 2719 1694 2719 2044 
Q 2719 2081 2716 2156 
Q 2547 1888 2255 1720 
Q 1963 1553 1622 1553 
Q 1053 1553 659 1965 
Q 266 2378 266 3053 
Q 266 3750 677 4175 
Q 1088 4600 1706 4600 
Q 2153 4600 2523 4359 
Q 2894 4119 3086 3673 
Q 3278 3228 3278 2384 
Q 3278 1506 3087 986 
Q 2897 466 2520 194 
Q 2144 -78 1638 -78 
Q 1100 -78 759 220 
Q 419 519 350 1059 
z
M 2653 3081 
Q 2653 3566 2395 3850 
Q 2138 4134 1775 4134 
Q 1400 4134 1122 3828 
Q 844 3522 844 3034 
Q 844 2597 1108 2323 
Q 1372 2050 1759 2050 
Q 2150 2050 2401 2323 
Q 2653 2597 2653 3081 
z
" transform="scale(0.015625)"/>
      <path id="ArialMT-25" d="M 372 3481 
Q 372 3972 619 4315 
Q 866 4659 1334 4659 
Q 1766 4659 2048 4351 
Q 2331 4044 2331 3447 
Q 2331 2866 2045 2552 
Q 1759 2238 1341 2238 
Q 925 2238 648 2547 
Q 372 2856 372 3481 
z
M 1350 4272 
Q 1141 4272 1002 4090 
Q 863 3909 863 3425 
Q 863 2984 1003 2804 
Q 1144 2625 1350 2625 
Q 1563 2625 1702 2806 
Q 1841 2988 1841 3469 
Q 1841 3913 1700 4092 
Q 1559 4272 1350 4272 
z
M 1353 -169 
L 3859 4659 
L 4316 4659 
L 1819 -169 
L 1353 -169 
z
M 3334 1075 
Q 3334 1569 3581 1911 
Q 3828 2253 4300 2253 
Q 4731 2253 5014 1945 
Q 5297 1638 5297 1041 
Q 5297 459 5011 145 
Q 4725 -169 4303 -169 
Q 3888 -169 3611 142 
Q 3334 453 3334 1075 
z
M 4316 1866 
Q 4103 1866 3964 1684 
Q 3825 1503 3825 1019 
Q 3825 581 3965 400 
Q 4106 219 4313 219 
Q 4528 219 4667 400 
Q 4806 581 4806 1063 
Q 4806 1506 4665 1686 
Q 4525 1866 4316 1866 
z
" transform="scale(0.015625)"/>
     </defs>
     <use xlink:href="#ArialMT-35"/>
     <use xlink:href="#ArialMT-31" x="55.615234"/>
     <use xlink:href="#ArialMT-2e" x="111.230469"/>
     <use xlink:href="#ArialMT-39" x="139.013672"/>
     <use xlink:href="#ArialMT-25" x="194.628906"/>
    </g>
   </g>
   <g id="text_3">
    <!-- Exhaust enthalpy:  -->
    <g transform="translate(253.672499 347.714901) scale(0.11 -0.11)">
     <defs>
      <path id="ArialMT-45" d="M 506 0 
L 506 4581 
L 3819 4581 
L 3819 4041 
L 1113 4041 
L 1113 2638 
L 3647 2638 
L 3647 2100 
L 1113 2100 
L 1113 541 
L 3925 541 
L 3925 0 
L 506 0 
z
" transform="scale(0.015625)"/>
      <path id="ArialMT-78" d="M 47 0 
L 1259 1725 
L 138 3319 
L 841 3319 
L 1350 2541 
Q 1494 2319 1581 2169 
Q 1719 2375 1834 2534 
L 2394 3319 
L 3066 3319 
L 1919 1756 
L 3153 0 
L 2463 0 
L 1781 1031 
L 1600 1309 
L 728 0 
L 47 0 
z
" transform="scale(0.015625)"/>
      <path id="ArialMT-68" d="M 422 0 
L 422 4581 
L 984 4581 
L 984 2938 
Q 1378 3394 1978 3394 
Q 2347 3394 2619 3248 
Q 2891 3103 3008 2847 
Q 3125 2591 3125 2103 
L 3125 0 
L 2563 0 
L 2563 2103 
Q 2563 2525 2380 2717 
Q 2197 2909 1863 2909 
Q 1613 2909 1392 2779 
Q 1172 2650 1078 2428 
Q 984 2206 984 1816 
L 984 0 
L 422 0 
z
" transform="scale(0.015625)"/>
      <path id="ArialMT-61" d="M 2588 409 
Q 2275 144 1986 34 
Q 1697 -75 1366 -75 
Q 819 -75 525 192 
Q 231 459 231 875 
Q 231 1119 342 1320 
Q 453 1522 633 1644 
Q 813 1766 1038 1828 
Q 1203 1872 1538 1913 
Q 2219 1994 2541 2106 
Q 2544 2222 2544 2253 
Q 2544 2597 2384 2738 
Q 2169 2928 1744 2928 
Q 1347 2928 1158 2789 
Q 969 2650 878 2297 
L 328 2372 
Q 403 2725 575 2942 
Q 747 3159 1072 3276 
Q 1397 3394 1825 3394 
Q 2250 3394 2515 3294 
Q 2781 3194 2906 3042 
Q 3031 2891 3081 2659 
Q 3109 2516 3109 2141 
L 3109 1391 
Q 3109 606 3145 398 
Q 3181 191 3288 0 
L 2700 0 
Q 2613 175 2588 409 
z
M 2541 1666 
Q 2234 1541 1622 1453 
Q 1275 1403 1131 1340 
Q 988 1278 909 1158 
Q 831 1038 831 891 
Q 831 666 1001 516 
Q 1172 366 1500 366 
Q 1825 366 2078 508 
Q 2331 650 2450 897 
Q 2541 1088 2541 1459 
L 2541 1666 
z
" transform="scale(0.015625)"/>
      <path id="ArialMT-75" d="M 2597 0 
L 2597 488 
Q 2209 -75 1544 -75 
Q 1250 -75 995 37 
Q 741 150 617 320 
Q 494 491 444 738 
Q 409 903 409 1263 
L 409 3319 
L 972 3319 
L 972 1478 
Q 972 1038 1006 884 
Q 1059 663 1231 536 
Q 1403 409 1656 409 
Q 1909 409 2131 539 
Q 2353 669 2445 892 
Q 2538 1116 2538 1541 
L 2538 3319 
L 3100 3319 
L 3100 0 
L 2597 0 
z
" transform="scale(0.015625)"/>
      <path id="ArialMT-73" d="M 197 991 
L 753 1078 
Q 800 744 1014 566 
Q 1228 388 1613 388 
Q 2000 388 2187 545 
Q 2375 703 2375 916 
Q 2375 1106 2209 1216 
Q 2094 1291 1634 1406 
Q 1016 1563 777 1677 
Q 538 1791 414 1992 
Q 291 2194 291 2438 
Q 291 2659 392 2848 
Q 494 3038 669 3163 
Q 800 3259 1026 3326 
Q 1253 3394 1513 3394 
Q 1903 3394 2198 3281 
Q 2494 3169 2634 2976 
Q 2775 2784 2828 2463 
L 2278 2388 
Q 2241 2644 2061 2787 
Q 1881 2931 1553 2931 
Q 1166 2931 1000 2803 
Q 834 2675 834 2503 
Q 834 2394 903 2306 
Q 972 2216 1119 2156 
Q 1203 2125 1616 2013 
Q 2213 1853 2448 1751 
Q 2684 1650 2818 1456 
Q 2953 1263 2953 975 
Q 2953 694 2789 445 
Q 2625 197 2315 61 
Q 2006 -75 1616 -75 
Q 969 -75 630 194 
Q 291 463 197 991 
z
" transform="scale(0.015625)"/>
      <path id="ArialMT-6e" d="M 422 0 
L 422 3319 
L 928 3319 
L 928 2847 
Q 1294 3394 1984 3394 
Q 2284 3394 2536 3286 
Q 2788 3178 2913 3003 
Q 3038 2828 3088 2588 
Q 3119 2431 3119 2041 
L 3119 0 
L 2556 0 
L 2556 2019 
Q 2556 2363 2490 2533 
Q 2425 2703 2258 2804 
Q 2091 2906 1866 2906 
Q 1506 2906 1245 2678 
Q 984 2450 984 1813 
L 984 0 
L 422 0 
z
" transform="scale(0.015625)"/>
      <path id="ArialMT-6c" d="M 409 0 
L 409 4581 
L 972 4581 
L 972 0 
L 409 0 
z
" transform="scale(0.015625)"/>
      <path id="ArialMT-79" d="M 397 -1278 
L 334 -750 
Q 519 -800 656 -800 
Q 844 -800 956 -737 
Q 1069 -675 1141 -563 
Q 1194 -478 1313 -144 
Q 1328 -97 1363 -6 
L 103 3319 
L 709 3319 
L 1400 1397 
Q 1534 1031 1641 628 
Q 1738 1016 1872 1384 
L 2581 3319 
L 3144 3319 
L 1881 -56 
Q 1678 -603 1566 -809 
Q 1416 -1088 1222 -1217 
Q 1028 -1347 759 -1347 
Q 597 -1347 397 -1278 
z
" transform="scale(0.015625)"/>
     </defs>
     <use xlink:href="#ArialMT-45"/>
     <use xlink:href="#ArialMT-78" x="66.699219"/>
     <use xlink:href="#ArialMT-68" x="116.699219"/>
     <use xlink:href="#ArialMT-61" x="172.314453"/>
     <use xlink:href="#ArialMT-75" x="227.929688"/>
     <use xlink:href="#ArialMT-73" x="283.544922"/>
     <use xlink:href="#ArialMT-74" x="333.544922"/>
     <use xlink:href="#ArialMT-20" x="361.328125"/>
     <use xlink:href="#ArialMT-65" x="389.111328"/>
     <use xlink:href="#ArialMT-6e" x="444.726562"/>
     <use xlink:href="#ArialMT-74" x="500.341797"/>
     <use xlink:href="#ArialMT-68" x="528.125"/>
     <use xlink:href="#ArialMT-61" x="583.740234"/>
     <use xlink:href="#ArialMT-6c" x="639.355469"/>
     <use xlink:href="#ArialMT-70" x="661.572266"/>
     <use xlink:href="#ArialMT-79" x="717.1875"/>
     <use xlink:href="#ArialMT-3a" x="767.1875"/>
     <use xlink:href="#ArialMT-20" x="794.970703"/>
    </g>
    <!-- 140.78 MW -->
    <g transform="translate(253.672499 359.47837) scale(0.11 -0.11)">
     <defs>
      <path id="ArialMT-30" d="M 266 2259 
Q 266 3072 433 3567 
Q 600 4063 929 4331 
Q 1259 4600 1759 4600 
Q 2128 4600 2406 4451 
Q 2684 4303 2865 4023 
Q 3047 3744 3150 3342 
Q 3253 2941 3253 2259 
Q 3253 1453 3087 958 
Q 2922 463 2592 192 
Q 2263 -78 1759 -78 
Q 1097 -78 719 397 
Q 266 969 266 2259 
z
M 844 2259 
Q 844 1131 1108 757 
Q 1372 384 1759 384 
Q 2147 384 2411 759 
Q 2675 1134 2675 2259 
Q 2675 3391 2411 3762 
Q 2147 4134 1753 4134 
Q 1366 4134 1134 3806 
Q 844 3388 844 2259 
z
" transform="scale(0.015625)"/>
     </defs>
     <use xlink:href="#ArialMT-31"/>
     <use xlink:href="#ArialMT-34" x="55.615234"/>
     <use xlink:href="#ArialMT-30" x="111.230469"/>
     <use xlink:href="#ArialMT-2e" x="166.845703"/>
     <use xlink:href="#ArialMT-37" x="194.628906"/>
     <use xlink:href="#ArialMT-38" x="250.244141"/>
     <use xlink:href="#ArialMT-20" x="305.859375"/>
     <use xlink:href="#ArialMT-4d" x="333.642578"/>
     <use xlink:href="#ArialMT-57" x="416.943359"/>
    </g>
   </g>
   <g id="text_4">
    <!-- 13.5% -->
    <g transform="translate(210.217454 307.547107) scale(0.11 -0.11)">
     <defs>
      <path id="ArialMT-33" d="M 269 1209 
L 831 1284 
Q 928 806 1161 595 
Q 1394 384 1728 384 
Q 2125 384 2398 659 
Q 2672 934 2672 1341 
Q 2672 1728 2419 1979 
Q 2166 2231 1775 2231 
Q 1616 2231 1378 2169 
L 1441 2663 
Q 1497 2656 1531 2656 
Q 1891 2656 2178 2843 
Q 2466 3031 2466 3422 
Q 2466 3731 2256 3934 
Q 2047 4138 1716 4138 
Q 1388 4138 1169 3931 
Q 950 3725 888 3313 
L 325 3413 
Q 428 3978 793 4289 
Q 1159 4600 1703 4600 
Q 2078 4600 2393 4439 
Q 2709 4278 2876 4000 
Q 3044 3722 3044 3409 
Q 3044 3113 2884 2869 
Q 2725 2625 2413 2481 
Q 2819 2388 3044 2092 
Q 3269 1797 3269 1353 
Q 3269 753 2831 336 
Q 2394 -81 1725 -81 
Q 1122 -81 723 278 
Q 325 638 269 1209 
z
" transform="scale(0.015625)"/>
     </defs>
     <use xlink:href="#ArialMT-31"/>
     <use xlink:href="#ArialMT-33" x="55.615234"/>
     <use xlink:href="#ArialMT-2e" x="111.230469"/>
     <use xlink:href="#ArialMT-35" x="139.013672"/>
     <use xlink:href="#ArialMT-25" x="194.628906"/>
    </g>
   </g>
   <g id="text_5">
    <!-- Condenser heat rejection:  -->
    <g transform="translate(297.207847 191.41587) scale(0.11 -0.11)">
     <defs>
      <path id="ArialMT-43" d="M 3763 1606 
L 4369 1453 
Q 4178 706 3683 314 
Q 3188 -78 2472 -78 
Q 1731 -78 1267 223 
Q 803 525 561 1097 
Q 319 1669 319 2325 
Q 319 3041 592 3573 
Q 866 4106 1370 4382 
Q 1875 4659 2481 4659 
Q 3169 4659 3637 4309 
Q 4106 3959 4291 3325 
L 3694 3184 
Q 3534 3684 3231 3912 
Q 2928 4141 2469 4141 
Q 1941 4141 1586 3887 
Q 1231 3634 1087 3207 
Q 944 2781 944 2328 
Q 944 1744 1114 1308 
Q 1284 872 1643 656 
Q 2003 441 2422 441 
Q 2931 441 3284 734 
Q 3638 1028 3763 1606 
z
" transform="scale(0.015625)"/>
      <path id="ArialMT-64" d="M 2575 0 
L 2575 419 
Q 2259 -75 1647 -75 
Q 1250 -75 917 144 
Q 584 363 401 755 
Q 219 1147 219 1656 
Q 219 2153 384 2558 
Q 550 2963 881 3178 
Q 1213 3394 1622 3394 
Q 1922 3394 2156 3267 
Q 2391 3141 2538 2938 
L 2538 4581 
L 3097 4581 
L 3097 0 
L 2575 0 
z
M 797 1656 
Q 797 1019 1065 703 
Q 1334 388 1700 388 
Q 2069 388 2326 689 
Q 2584 991 2584 1609 
Q 2584 2291 2321 2609 
Q 2059 2928 1675 2928 
Q 1300 2928 1048 2622 
Q 797 2316 797 1656 
z
" transform="scale(0.015625)"/>
      <path id="ArialMT-6a" d="M 419 3928 
L 419 4581 
L 981 4581 
L 981 3928 
L 419 3928 
z
M -294 -1288 
L -188 -809 
Q -19 -853 78 -853 
Q 250 -853 334 -739 
Q 419 -625 419 -169 
L 419 3319 
L 981 3319 
L 981 -181 
Q 981 -794 822 -1034 
Q 619 -1347 147 -1347 
Q -81 -1347 -294 -1288 
z
" transform="scale(0.015625)"/>
      <path id="ArialMT-63" d="M 2588 1216 
L 3141 1144 
Q 3050 572 2676 248 
Q 2303 -75 1759 -75 
Q 1078 -75 664 370 
Q 250 816 250 1647 
Q 250 2184 428 2587 
Q 606 2991 970 3192 
Q 1334 3394 1763 3394 
Q 2303 3394 2647 3120 
Q 2991 2847 3088 2344 
L 2541 2259 
Q 2463 2594 2264 2762 
Q 2066 2931 1784 2931 
Q 1359 2931 1093 2626 
Q 828 2322 828 1663 
Q 828 994 1084 691 
Q 1341 388 1753 388 
Q 2084 388 2306 591 
Q 2528 794 2588 1216 
z
" transform="scale(0.015625)"/>
      <path id="ArialMT-69" d="M 425 3934 
L 425 4581 
L 988 4581 
L 988 3934 
L 425 3934 
z
M 425 0 
L 425 3319 
L 988 3319 
L 988 0 
L 425 0 
z
" transform="scale(0.015625)"/>
     </defs>
     <use xlink:href="#ArialMT-43"/>
     <use xlink:href="#ArialMT-6f" x="72.216797"/>
     <use xlink:href="#ArialMT-6e" x="127.832031"/>
     <use xlink:href="#ArialMT-64" x="183.447266"/>
     <use xlink:href="#ArialMT-65" x="239.0625"/>
     <use xlink:href="#ArialMT-6e" x="294.677734"/>
     <use xlink:href="#ArialMT-73" x="350.292969"/>
     <use xlink:href="#ArialMT-65" x="400.292969"/>
     <use xlink:href="#ArialMT-72" x="455.908203"/>
     <use xlink:href="#ArialMT-20" x="489.208984"/>
     <use xlink:href="#ArialMT-68" x="516.992188"/>
     <use xlink:href="#ArialMT-65" x="572.607422"/>
     <use xlink:href="#ArialMT-61" x="628.222656"/>
     <use xlink:href="#ArialMT-74" x="683.837891"/>
     <use xlink:href="#ArialMT-20" x="711.621094"/>
     <use xlink:href="#ArialMT-72" x="739.404297"/>
     <use xlink:href="#ArialMT-65" x="772.705078"/>
     <use xlink:href="#ArialMT-6a" x="828.320312"/>
     <use xlink:href="#ArialMT-65" x="850.537109"/>
     <use xlink:href="#ArialMT-63" x="906.152344"/>
     <use xlink:href="#ArialMT-74" x="956.152344"/>
     <use xlink:href="#ArialMT-69" x="983.935547"/>
     <use xlink:href="#ArialMT-6f" x="1006.152344"/>
     <use xlink:href="#ArialMT-6e" x="1061.767578"/>
     <use xlink:href="#ArialMT-3a" x="1117.382812"/>
     <use xlink:href="#ArialMT-20" x="1145.166016"/>
    </g>
    <!-- 361.74 MW -->
    <g transform="translate(297.207847 203.179338) scale(0.11 -0.11)">
     <defs>
      <path id="ArialMT-36" d="M 3184 3459 
L 2625 3416 
Q 2550 3747 2413 3897 
Q 2184 4138 1850 4138 
Q 1581 4138 1378 3988 
Q 1113 3794 959 3422 
Q 806 3050 800 2363 
Q 1003 2672 1297 2822 
Q 1591 2972 1913 2972 
Q 2475 2972 2870 2558 
Q 3266 2144 3266 1488 
Q 3266 1056 3080 686 
Q 2894 316 2569 119 
Q 2244 -78 1831 -78 
Q 1128 -78 684 439 
Q 241 956 241 2144 
Q 241 3472 731 4075 
Q 1159 4600 1884 4600 
Q 2425 4600 2770 4297 
Q 3116 3994 3184 3459 
z
M 888 1484 
Q 888 1194 1011 928 
Q 1134 663 1356 523 
Q 1578 384 1822 384 
Q 2178 384 2434 671 
Q 2691 959 2691 1453 
Q 2691 1928 2437 2201 
Q 2184 2475 1800 2475 
Q 1419 2475 1153 2201 
Q 888 1928 888 1484 
z
" transform="scale(0.015625)"/>
     </defs>
     <use xlink:href="#ArialMT-33"/>
     <use xlink:href="#ArialMT-36" x="55.615234"/>
     <use xlink:href="#ArialMT-31" x="111.230469"/>
     <use xlink:href="#ArialMT-2e" x="166.845703"/>
     <use xlink:href="#ArialMT-37" x="194.628906"/>
     <use xlink:href="#ArialMT-34" x="250.244141"/>
     <use xlink:href="#ArialMT-20" x="305.859375"/>
     <use xlink:href="#ArialMT-4d" x="333.642578"/>
     <use xlink:href="#ArialMT-57" x="416.943359"/>
    </g>
   </g>
   <g id="text_6">
    <!-- 34.6% -->
    <g transform="translate(233.964007 222.256527) scale(0.11 -0.11)">
     <use xlink:href="#ArialMT-33"/>
     <use xlink:href="#ArialMT-34" x="55.615234"/>
     <use xlink:href="#ArialMT-2e" x="111.230469"/>
     <use xlink:href="#ArialMT-36" x="139.013672"/>
     <use xlink:href="#ArialMT-25" x="194.628906"/>
    </g>
   </g>
   <g id="text_7">
    <!-- Total energy balance: from heat input rate 1045.30 MW -->
    <g transform="translate(58.176103 109.889532) scale(0.11 -0.11)">
     <defs>
      <path id="ArialMT-54" d="M 1659 0 
L 1659 4041 
L 150 4041 
L 150 4581 
L 3781 4581 
L 3781 4041 
L 2266 4041 
L 2266 0 
L 1659 0 
z
" transform="scale(0.015625)"/>
      <path id="ArialMT-67" d="M 319 -275 
L 866 -356 
Q 900 -609 1056 -725 
Q 1266 -881 1628 -881 
Q 2019 -881 2231 -725 
Q 2444 -569 2519 -288 
Q 2563 -116 2559 434 
Q 2191 0 1641 0 
Q 956 0 581 494 
Q 206 988 206 1678 
Q 206 2153 378 2554 
Q 550 2956 876 3175 
Q 1203 3394 1644 3394 
Q 2231 3394 2613 2919 
L 2613 3319 
L 3131 3319 
L 3131 450 
Q 3131 -325 2973 -648 
Q 2816 -972 2473 -1159 
Q 2131 -1347 1631 -1347 
Q 1038 -1347 672 -1080 
Q 306 -813 319 -275 
z
M 784 1719 
Q 784 1066 1043 766 
Q 1303 466 1694 466 
Q 2081 466 2343 764 
Q 2606 1063 2606 1700 
Q 2606 2309 2336 2618 
Q 2066 2928 1684 2928 
Q 1309 2928 1046 2623 
Q 784 2319 784 1719 
z
" transform="scale(0.015625)"/>
      <path id="ArialMT-62" d="M 941 0 
L 419 0 
L 419 4581 
L 981 4581 
L 981 2947 
Q 1338 3394 1891 3394 
Q 2197 3394 2470 3270 
Q 2744 3147 2920 2923 
Q 3097 2700 3197 2384 
Q 3297 2069 3297 1709 
Q 3297 856 2875 390 
Q 2453 -75 1863 -75 
Q 1275 -75 941 416 
L 941 0 
z
M 934 1684 
Q 934 1088 1097 822 
Q 1363 388 1816 388 
Q 2184 388 2453 708 
Q 2722 1028 2722 1663 
Q 2722 2313 2464 2622 
Q 2206 2931 1841 2931 
Q 1472 2931 1203 2611 
Q 934 2291 934 1684 
z
" transform="scale(0.015625)"/>
      <path id="ArialMT-66" d="M 556 0 
L 556 2881 
L 59 2881 
L 59 3319 
L 556 3319 
L 556 3672 
Q 556 4006 616 4169 
Q 697 4388 901 4523 
Q 1106 4659 1475 4659 
Q 1713 4659 2000 4603 
L 1916 4113 
Q 1741 4144 1584 4144 
Q 1328 4144 1222 4034 
Q 1116 3925 1116 3625 
L 1116 3319 
L 1763 3319 
L 1763 2881 
L 1116 2881 
L 1116 0 
L 556 0 
z
" transform="scale(0.015625)"/>
      <path id="ArialMT-6d" d="M 422 0 
L 422 3319 
L 925 3319 
L 925 2853 
Q 1081 3097 1340 3245 
Q 1600 3394 1931 3394 
Q 2300 3394 2536 3241 
Q 2772 3088 2869 2813 
Q 3263 3394 3894 3394 
Q 4388 3394 4653 3120 
Q 4919 2847 4919 2278 
L 4919 0 
L 4359 0 
L 4359 2091 
Q 4359 2428 4304 2576 
Q 4250 2725 4106 2815 
Q 3963 2906 3769 2906 
Q 3419 2906 3187 2673 
Q 2956 2441 2956 1928 
L 2956 0 
L 2394 0 
L 2394 2156 
Q 2394 2531 2256 2718 
Q 2119 2906 1806 2906 
Q 1569 2906 1367 2781 
Q 1166 2656 1075 2415 
Q 984 2175 984 1722 
L 984 0 
L 422 0 
z
" transform="scale(0.015625)"/>
     </defs>
     <use xlink:href="#ArialMT-54"/>
     <use xlink:href="#ArialMT-6f" x="49.958984"/>
     <use xlink:href="#ArialMT-74" x="105.574219"/>
     <use xlink:href="#ArialMT-61" x="133.357422"/>
     <use xlink:href="#ArialMT-6c" x="188.972656"/>
     <use xlink:href="#ArialMT-20" x="211.189453"/>
     <use xlink:href="#ArialMT-65" x="238.972656"/>
     <use xlink:href="#ArialMT-6e" x="294.587891"/>
     <use xlink:href="#ArialMT-65" x="350.203125"/>
     <use xlink:href="#ArialMT-72" x="405.818359"/>
     <use xlink:href="#ArialMT-67" x="439.119141"/>
     <use xlink:href="#ArialMT-79" x="494.734375"/>
     <use xlink:href="#ArialMT-20" x="544.734375"/>
     <use xlink:href="#ArialMT-62" x="572.517578"/>
     <use xlink:href="#ArialMT-61" x="628.132812"/>
     <use xlink:href="#ArialMT-6c" x="683.748047"/>
     <use xlink:href="#ArialMT-61" x="705.964844"/>
     <use xlink:href="#ArialMT-6e" x="761.580078"/>
     <use xlink:href="#ArialMT-63" x="817.195312"/>
     <use xlink:href="#ArialMT-65" x="867.195312"/>
     <use xlink:href="#ArialMT-3a" x="922.810547"/>
     <use xlink:href="#ArialMT-20" x="950.59375"/>
     <use xlink:href="#ArialMT-66" x="978.376953"/>
     <use xlink:href="#ArialMT-72" x="1006.160156"/>
     <use xlink:href="#ArialMT-6f" x="1039.460938"/>
     <use xlink:href="#ArialMT-6d" x="1095.076172"/>
     <use xlink:href="#ArialMT-20" x="1178.376953"/>
     <use xlink:href="#ArialMT-68" x="1206.160156"/>
     <use xlink:href="#ArialMT-65" x="1261.775391"/>
     <use xlink:href="#ArialMT-61" x="1317.390625"/>
     <use xlink:href="#ArialMT-74" x="1373.005859"/>
     <use xlink:href="#ArialMT-20" x="1400.789062"/>
     <use xlink:href="#ArialMT-69" x="1428.572266"/>
     <use xlink:href="#ArialMT-6e" x="1450.789062"/>
     <use xlink:href="#ArialMT-70" x="1506.404297"/>
     <use xlink:href="#ArialMT-75" x="1562.019531"/>
     <use xlink:href="#ArialMT-74" x="1617.634766"/>
     <use xlink:href="#ArialMT-20" x="1645.417969"/>
     <use xlink:href="#ArialMT-72" x="1673.201172"/>
     <use xlink:href="#ArialMT-61" x="1706.501953"/>
     <use xlink:href="#ArialMT-74" x="1762.117188"/>
     <use xlink:href="#ArialMT-65" x="1789.900391"/>
     <use xlink:href="#ArialMT-20" x="1845.515625"/>
     <use xlink:href="#ArialMT-31" x="1873.298828"/>
     <use xlink:href="#ArialMT-30" x="1928.914062"/>
     <use xlink:href="#ArialMT-34" x="1984.529297"/>
     <use xlink:href="#ArialMT-35" x="2040.144531"/>
     <use xlink:href="#ArialMT-2e" x="2095.759766"/>
     <use xlink:href="#ArialMT-33" x="2123.542969"/>
     <use xlink:href="#ArialMT-30" x="2179.158203"/>
     <use xlink:href="#ArialMT-20" x="2234.773438"/>
     <use xlink:href="#ArialMT-4d" x="2262.556641"/>
     <use xlink:href="#ArialMT-57" x="2345.857422"/>
    </g>
   </g>
  </g>
  <g id="axes_2">
   <g id="patch_5">
    <path d="M 582.6634 148.074376 
C 562.868995 148.074376 543.452905 153.534318 526.559664 163.851145 
C 509.666424 174.167971 495.941768 188.947327 486.901605 206.556811 
C 477.861441 224.166295 473.851325 243.932795 475.31418 263.673072 
C 476.777035 283.413349 483.656943 302.372842 495.194009 318.457449 
C 506.731076 334.542056 522.484303 347.136951 540.713723 354.85101 
C 558.943144 362.56507 578.951948 365.103427 598.530137 362.185718 
C 618.108325 359.26801 636.507531 351.005762 651.695537 338.311552 
C 666.883543 325.617343 678.279795 308.9764 684.625562 290.226741 
L 582.6634 255.71795 
z
" style="fill: #4fc26e"/>
   </g>
   <g id="patch_6">
    <path d="M 693.372501 283.952791 
C 694.896424 279.450098 696.120414 274.851399 697.03643 270.186905 
C 697.952445 265.522411 698.558477 260.802358 698.850543 256.057752 
L 591.410339 249.444 
z
" style="fill: #f2b134"/>
   </g>
   <g id="patch_7">
    <path d="M 698.850543 256.057752 
C 698.894996 255.335617 698.932167 254.613051 698.962051 253.890166 
C 698.991935 253.167281 699.01453 252.444113 699.029833 251.720772 
L 591.410339 249.444 
z
" style="fill: #ebbe42"/>
   </g>
   <g id="patch_8">
    <path d="M 699.029833 251.720772 
C 699.128049 247.078259 698.925757 242.434251 698.424226 237.817862 
C 697.922695 233.201473 697.122975 228.62237 696.030079 224.10926 
L 591.410339 249.444 
z
" style="fill: #f0643a"/>
   </g>
   <g id="patch_9">
    <path d="M 696.030079 224.10926 
C 694.081563 216.062868 691.211254 208.268064 687.476122 200.879564 
C 683.740991 193.491064 679.165914 186.558077 673.8417 180.218211 
L 591.410339 249.444 
z
" style="fill: #e85238"/>
   </g>
   <g id="patch_10">
    <path d="M 673.8417 180.218211 
C 667.795127 173.018189 660.831194 166.641311 653.127878 161.250551 
C 645.424562 155.859791 637.048051 151.501467 628.212421 148.286964 
L 591.410339 249.444 
z
" style="fill: #ed3c2f"/>
   </g>
   <g id="patch_11">
    <path d="M 628.212421 148.286964 
C 628.197764 148.281632 628.183105 148.276302 628.168445 148.270976 
C 628.153785 148.26565 628.139124 148.260327 628.124462 148.255007 
L 591.410339 249.444 
z
" style="fill: #cf1f1f"/>
   </g>
   <g id="patch_12">
    <path d="M 628.124462 148.255007 
C 622.25085 146.123901 616.202823 144.508245 610.048927 143.42635 
C 603.895032 142.344455 597.658606 141.800425 591.410332 141.800426 
L 591.410339 249.444 
z
" style="fill: #a12323"/>
   </g>
   <g id="matplotlib.axis_3"/>
   <g id="matplotlib.axis_4"/>
   <g id="text_8">
    <!-- Net power:  -->
    <g transform="translate(430.204414 321.75779) scale(0.11 -0.11)">
     <use xlink:href="#ArialMT-4e"/>
     <use xlink:href="#ArialMT-65" x="72.216797"/>
     <use xlink:href="#ArialMT-74" x="127.832031"/>
     <use xlink:href="#ArialMT-20" x="155.615234"/>
     <use xlink:href="#ArialMT-70" x="183.398438"/>
     <use xlink:href="#ArialMT-6f" x="239.013672"/>
     <use xlink:href="#ArialMT-77" x="294.628906"/>
     <use xlink:href="#ArialMT-65" x="366.845703"/>
     <use xlink:href="#ArialMT-72" x="422.460938"/>
     <use xlink:href="#ArialMT-3a" x="455.761719"/>
     <use xlink:href="#ArialMT-20" x="483.544922"/>
    </g>
    <!-- 542.78 MW -->
    <g transform="translate(430.204414 333.392352) scale(0.11 -0.11)">
     <use xlink:href="#ArialMT-35"/>
     <use xlink:href="#ArialMT-34" x="55.615234"/>
     <use xlink:href="#ArialMT-32" x="111.230469"/>
     <use xlink:href="#ArialMT-2e" x="166.845703"/>
     <use xlink:href="#ArialMT-37" x="194.628906"/>
     <use xlink:href="#ArialMT-38" x="250.244141"/>
     <use xlink:href="#ArialMT-20" x="305.859375"/>
     <use xlink:href="#ArialMT-4d" x="333.642578"/>
     <use xlink:href="#ArialMT-57" x="416.943359"/>
    </g>
   </g>
   <g id="text_9">
    <!-- 69.8% -->
    <g transform="translate(514.587547 296.205321) scale(0.11 -0.11)">
     <use xlink:href="#ArialMT-36"/>
     <use xlink:href="#ArialMT-39" x="55.615234"/>
     <use xlink:href="#ArialMT-2e" x="111.230469"/>
     <use xlink:href="#ArialMT-38" x="139.013672"/>
     <use xlink:href="#ArialMT-25" x="194.628906"/>
    </g>
   </g>
   <g id="text_10">
    <!-- Exhaust exergy:  -->
    <g transform="translate(707.599039 269.223133) scale(0.11 -0.11)">
     <use xlink:href="#ArialMT-45"/>
     <use xlink:href="#ArialMT-78" x="66.699219"/>
     <use xlink:href="#ArialMT-68" x="116.699219"/>
     <use xlink:href="#ArialMT-61" x="172.314453"/>
     <use xlink:href="#ArialMT-75" x="227.929688"/>
     <use xlink:href="#ArialMT-73" x="283.544922"/>
     <use xlink:href="#ArialMT-74" x="333.544922"/>
     <use xlink:href="#ArialMT-20" x="361.328125"/>
     <use xlink:href="#ArialMT-65" x="389.111328"/>
     <use xlink:href="#ArialMT-78" x="444.726562"/>
     <use xlink:href="#ArialMT-65" x="494.726562"/>
     <use xlink:href="#ArialMT-72" x="550.341797"/>
     <use xlink:href="#ArialMT-67" x="583.642578"/>
     <use xlink:href="#ArialMT-79" x="639.257812"/>
     <use xlink:href="#ArialMT-3a" x="689.257812"/>
     <use xlink:href="#ArialMT-20" x="717.041016"/>
    </g>
    <!-- 32.78 MW -->
    <g transform="translate(707.599039 280.986602) scale(0.11 -0.11)">
     <use xlink:href="#ArialMT-33"/>
     <use xlink:href="#ArialMT-32" x="55.615234"/>
     <use xlink:href="#ArialMT-2e" x="111.230469"/>
     <use xlink:href="#ArialMT-37" x="139.013672"/>
     <use xlink:href="#ArialMT-38" x="194.628906"/>
     <use xlink:href="#ArialMT-20" x="250.244141"/>
     <use xlink:href="#ArialMT-4d" x="278.027344"/>
     <use xlink:href="#ArialMT-57" x="361.328125"/>
    </g>
   </g>
   <g id="text_11">
    <!-- 4.2% -->
    <g transform="translate(642.25029 264.733415) scale(0.11 -0.11)">
     <use xlink:href="#ArialMT-34"/>
     <use xlink:href="#ArialMT-2e" x="55.615234"/>
     <use xlink:href="#ArialMT-32" x="83.398438"/>
     <use xlink:href="#ArialMT-25" x="139.013672"/>
    </g>
   </g>
   <g id="text_12">
    <!-- Condenser exergy rejection:  -->
    <g transform="translate(709.717222 251.363752) scale(0.11 -0.11)">
     <use xlink:href="#ArialMT-43"/>
     <use xlink:href="#ArialMT-6f" x="72.216797"/>
     <use xlink:href="#ArialMT-6e" x="127.832031"/>
     <use xlink:href="#ArialMT-64" x="183.447266"/>
     <use xlink:href="#ArialMT-65" x="239.0625"/>
     <use xlink:href="#ArialMT-6e" x="294.677734"/>
     <use xlink:href="#ArialMT-73" x="350.292969"/>
     <use xlink:href="#ArialMT-65" x="400.292969"/>
     <use xlink:href="#ArialMT-72" x="455.908203"/>
     <use xlink:href="#ArialMT-20" x="489.208984"/>
     <use xlink:href="#ArialMT-65" x="516.992188"/>
     <use xlink:href="#ArialMT-78" x="572.607422"/>
     <use xlink:href="#ArialMT-65" x="622.607422"/>
     <use xlink:href="#ArialMT-72" x="678.222656"/>
     <use xlink:href="#ArialMT-67" x="711.523438"/>
     <use xlink:href="#ArialMT-79" x="767.138672"/>
     <use xlink:href="#ArialMT-20" x="817.138672"/>
     <use xlink:href="#ArialMT-72" x="844.921875"/>
     <use xlink:href="#ArialMT-65" x="878.222656"/>
     <use xlink:href="#ArialMT-6a" x="933.837891"/>
     <use xlink:href="#ArialMT-65" x="956.054688"/>
     <use xlink:href="#ArialMT-63" x="1011.669922"/>
     <use xlink:href="#ArialMT-74" x="1061.669922"/>
     <use xlink:href="#ArialMT-69" x="1089.453125"/>
     <use xlink:href="#ArialMT-6f" x="1111.669922"/>
     <use xlink:href="#ArialMT-6e" x="1167.285156"/>
     <use xlink:href="#ArialMT-3a" x="1222.900391"/>
     <use xlink:href="#ArialMT-20" x="1250.683594"/>
    </g>
    <!-- 4.99 MW -->
    <g transform="translate(709.717222 263.12722) scale(0.11 -0.11)">
     <use xlink:href="#ArialMT-34"/>
     <use xlink:href="#ArialMT-2e" x="55.615234"/>
     <use xlink:href="#ArialMT-39" x="83.398438"/>
     <use xlink:href="#ArialMT-39" x="139.013672"/>
     <use xlink:href="#ArialMT-20" x="194.628906"/>
     <use xlink:href="#ArialMT-4d" x="222.412109"/>
     <use xlink:href="#ArialMT-57" x="305.712891"/>
    </g>
   </g>
   <g id="text_13">
    <!-- 0.6% -->
    <g transform="translate(643.405663 254.955372) scale(0.11 -0.11)">
     <use xlink:href="#ArialMT-30"/>
     <use xlink:href="#ArialMT-2e" x="55.615234"/>
     <use xlink:href="#ArialMT-36" x="83.398438"/>
     <use xlink:href="#ArialMT-25" x="139.013672"/>
    </g>
   </g>
   <g id="text_14">
    <!-- Gas compressor loss:  -->
    <g transform="translate(709.125615 233.74867) scale(0.11 -0.11)">
     <defs>
      <path id="ArialMT-47" d="M 2638 1797 
L 2638 2334 
L 4578 2338 
L 4578 638 
Q 4131 281 3656 101 
Q 3181 -78 2681 -78 
Q 2006 -78 1454 211 
Q 903 500 622 1047 
Q 341 1594 341 2269 
Q 341 2938 620 3517 
Q 900 4097 1425 4378 
Q 1950 4659 2634 4659 
Q 3131 4659 3532 4498 
Q 3934 4338 4162 4050 
Q 4391 3763 4509 3300 
L 3963 3150 
Q 3859 3500 3706 3700 
Q 3553 3900 3268 4020 
Q 2984 4141 2638 4141 
Q 2222 4141 1919 4014 
Q 1616 3888 1430 3681 
Q 1244 3475 1141 3228 
Q 966 2803 966 2306 
Q 966 1694 1177 1281 
Q 1388 869 1791 669 
Q 2194 469 2647 469 
Q 3041 469 3416 620 
Q 3791 772 3984 944 
L 3984 1797 
L 2638 1797 
z
" transform="scale(0.015625)"/>
     </defs>
     <use xlink:href="#ArialMT-47"/>
     <use xlink:href="#ArialMT-61" x="77.783203"/>
     <use xlink:href="#ArialMT-73" x="133.398438"/>
     <use xlink:href="#ArialMT-20" x="183.398438"/>
     <use xlink:href="#ArialMT-63" x="211.181641"/>
     <use xlink:href="#ArialMT-6f" x="261.181641"/>
     <use xlink:href="#ArialMT-6d" x="316.796875"/>
     <use xlink:href="#ArialMT-70" x="400.097656"/>
     <use xlink:href="#ArialMT-72" x="455.712891"/>
     <use xlink:href="#ArialMT-65" x="489.013672"/>
     <use xlink:href="#ArialMT-73" x="544.628906"/>
     <use xlink:href="#ArialMT-73" x="594.628906"/>
     <use xlink:href="#ArialMT-6f" x="644.628906"/>
     <use xlink:href="#ArialMT-72" x="700.244141"/>
     <use xlink:href="#ArialMT-20" x="733.544922"/>
     <use xlink:href="#ArialMT-6c" x="761.328125"/>
     <use xlink:href="#ArialMT-6f" x="783.544922"/>
     <use xlink:href="#ArialMT-73" x="839.160156"/>
     <use xlink:href="#ArialMT-73" x="889.160156"/>
     <use xlink:href="#ArialMT-3a" x="939.160156"/>
     <use xlink:href="#ArialMT-20" x="966.943359"/>
    </g>
    <!-- 32.02 MW -->
    <g transform="translate(709.125615 245.383232) scale(0.11 -0.11)">
     <use xlink:href="#ArialMT-33"/>
     <use xlink:href="#ArialMT-32" x="55.615234"/>
     <use xlink:href="#ArialMT-2e" x="111.230469"/>
     <use xlink:href="#ArialMT-30" x="139.013672"/>
     <use xlink:href="#ArialMT-32" x="194.628906"/>
     <use xlink:href="#ArialMT-20" x="250.244141"/>
     <use xlink:href="#ArialMT-4d" x="278.027344"/>
     <use xlink:href="#ArialMT-57" x="361.328125"/>
    </g>
   </g>
   <g id="text_15">
    <!-- 4.1% -->
    <g transform="translate(643.082968 245.311989) scale(0.11 -0.11)">
     <use xlink:href="#ArialMT-34"/>
     <use xlink:href="#ArialMT-2e" x="55.615234"/>
     <use xlink:href="#ArialMT-31" x="83.398438"/>
     <use xlink:href="#ArialMT-25" x="139.013672"/>
    </g>
   </g>
   <g id="text_16">
    <!-- Gas turbine loss:  -->
    <g transform="translate(697.082701 193.049511) scale(0.11 -0.11)">
     <use xlink:href="#ArialMT-47"/>
     <use xlink:href="#ArialMT-61" x="77.783203"/>
     <use xlink:href="#ArialMT-73" x="133.398438"/>
     <use xlink:href="#ArialMT-20" x="183.398438"/>
     <use xlink:href="#ArialMT-74" x="211.181641"/>
     <use xlink:href="#ArialMT-75" x="238.964844"/>
     <use xlink:href="#ArialMT-72" x="294.580078"/>
     <use xlink:href="#ArialMT-62" x="327.880859"/>
     <use xlink:href="#ArialMT-69" x="383.496094"/>
     <use xlink:href="#ArialMT-6e" x="405.712891"/>
     <use xlink:href="#ArialMT-65" x="461.328125"/>
     <use xlink:href="#ArialMT-20" x="516.943359"/>
     <use xlink:href="#ArialMT-6c" x="544.726562"/>
     <use xlink:href="#ArialMT-6f" x="566.943359"/>
     <use xlink:href="#ArialMT-73" x="622.558594"/>
     <use xlink:href="#ArialMT-73" x="672.558594"/>
     <use xlink:href="#ArialMT-3a" x="722.558594"/>
     <use xlink:href="#ArialMT-20" x="750.341797"/>
    </g>
    <!-- 57.04 MW -->
    <g transform="translate(697.082701 204.684074) scale(0.11 -0.11)">
     <use xlink:href="#ArialMT-35"/>
     <use xlink:href="#ArialMT-37" x="55.615234"/>
     <use xlink:href="#ArialMT-2e" x="111.230469"/>
     <use xlink:href="#ArialMT-30" x="139.013672"/>
     <use xlink:href="#ArialMT-34" x="194.628906"/>
     <use xlink:href="#ArialMT-20" x="250.244141"/>
     <use xlink:href="#ArialMT-4d" x="278.027344"/>
     <use xlink:href="#ArialMT-57" x="361.328125"/>
    </g>
   </g>
   <g id="text_17">
    <!-- 7.3% -->
    <g transform="translate(636.514106 223.14901) scale(0.11 -0.11)">
     <use xlink:href="#ArialMT-37"/>
     <use xlink:href="#ArialMT-2e" x="55.615234"/>
     <use xlink:href="#ArialMT-33" x="83.398438"/>
     <use xlink:href="#ArialMT-25" x="139.013672"/>
    </g>
   </g>
   <g id="text_18">
    <!-- HRSG loss:  -->
    <g transform="translate(659.299632 149.457597) scale(0.11 -0.11)">
     <defs>
      <path id="ArialMT-48" d="M 513 0 
L 513 4581 
L 1119 4581 
L 1119 2700 
L 3500 2700 
L 3500 4581 
L 4106 4581 
L 4106 0 
L 3500 0 
L 3500 2159 
L 1119 2159 
L 1119 0 
L 513 0 
z
" transform="scale(0.015625)"/>
      <path id="ArialMT-52" d="M 503 0 
L 503 4581 
L 2534 4581 
Q 3147 4581 3465 4457 
Q 3784 4334 3975 4021 
Q 4166 3709 4166 3331 
Q 4166 2844 3850 2509 
Q 3534 2175 2875 2084 
Q 3116 1969 3241 1856 
Q 3506 1613 3744 1247 
L 4541 0 
L 3778 0 
L 3172 953 
Q 2906 1366 2734 1584 
Q 2563 1803 2427 1890 
Q 2291 1978 2150 2013 
Q 2047 2034 1813 2034 
L 1109 2034 
L 1109 0 
L 503 0 
z
M 1109 2559 
L 2413 2559 
Q 2828 2559 3062 2645 
Q 3297 2731 3419 2920 
Q 3541 3109 3541 3331 
Q 3541 3656 3305 3865 
Q 3069 4075 2559 4075 
L 1109 4075 
L 1109 2559 
z
" transform="scale(0.015625)"/>
      <path id="ArialMT-53" d="M 288 1472 
L 859 1522 
Q 900 1178 1048 958 
Q 1197 738 1509 602 
Q 1822 466 2213 466 
Q 2559 466 2825 569 
Q 3091 672 3220 851 
Q 3350 1031 3350 1244 
Q 3350 1459 3225 1620 
Q 3100 1781 2813 1891 
Q 2628 1963 1997 2114 
Q 1366 2266 1113 2400 
Q 784 2572 623 2826 
Q 463 3081 463 3397 
Q 463 3744 659 4045 
Q 856 4347 1234 4503 
Q 1613 4659 2075 4659 
Q 2584 4659 2973 4495 
Q 3363 4331 3572 4012 
Q 3781 3694 3797 3291 
L 3216 3247 
Q 3169 3681 2898 3903 
Q 2628 4125 2100 4125 
Q 1550 4125 1298 3923 
Q 1047 3722 1047 3438 
Q 1047 3191 1225 3031 
Q 1400 2872 2139 2705 
Q 2878 2538 3153 2413 
Q 3553 2228 3743 1945 
Q 3934 1663 3934 1294 
Q 3934 928 3725 604 
Q 3516 281 3123 101 
Q 2731 -78 2241 -78 
Q 1619 -78 1198 103 
Q 778 284 539 648 
Q 300 1013 288 1472 
z
" transform="scale(0.015625)"/>
     </defs>
     <use xlink:href="#ArialMT-48"/>
     <use xlink:href="#ArialMT-52" x="72.216797"/>
     <use xlink:href="#ArialMT-53" x="144.433594"/>
     <use xlink:href="#ArialMT-47" x="211.132812"/>
     <use xlink:href="#ArialMT-20" x="288.916016"/>
     <use xlink:href="#ArialMT-6c" x="316.699219"/>
     <use xlink:href="#ArialMT-6f" x="338.916016"/>
     <use xlink:href="#ArialMT-73" x="394.53125"/>
     <use xlink:href="#ArialMT-73" x="444.53125"/>
     <use xlink:href="#ArialMT-3a" x="494.53125"/>
     <use xlink:href="#ArialMT-20" x="522.314453"/>
    </g>
    <!-- 64.76 MW -->
    <g transform="translate(659.299632 161.092159) scale(0.11 -0.11)">
     <use xlink:href="#ArialMT-36"/>
     <use xlink:href="#ArialMT-34" x="55.615234"/>
     <use xlink:href="#ArialMT-2e" x="111.230469"/>
     <use xlink:href="#ArialMT-37" x="139.013672"/>
     <use xlink:href="#ArialMT-36" x="194.628906"/>
     <use xlink:href="#ArialMT-20" x="250.244141"/>
     <use xlink:href="#ArialMT-4d" x="278.027344"/>
     <use xlink:href="#ArialMT-57" x="361.328125"/>
    </g>
   </g>
   <g id="text_19">
    <!-- 8.3% -->
    <g transform="translate(615.90516 199.371602) scale(0.11 -0.11)">
     <use xlink:href="#ArialMT-38"/>
     <use xlink:href="#ArialMT-2e" x="55.615234"/>
     <use xlink:href="#ArialMT-33" x="83.398438"/>
     <use xlink:href="#ArialMT-25" x="139.013672"/>
    </g>
   </g>
   <g id="text_20">
    <!-- Steam pump loss:  -->
    <g transform="translate(631.844255 135.247096) scale(0.11 -0.11)">
     <use xlink:href="#ArialMT-53"/>
     <use xlink:href="#ArialMT-74" x="66.699219"/>
     <use xlink:href="#ArialMT-65" x="94.482422"/>
     <use xlink:href="#ArialMT-61" x="150.097656"/>
     <use xlink:href="#ArialMT-6d" x="205.712891"/>
     <use xlink:href="#ArialMT-20" x="289.013672"/>
     <use xlink:href="#ArialMT-70" x="316.796875"/>
     <use xlink:href="#ArialMT-75" x="372.412109"/>
     <use xlink:href="#ArialMT-6d" x="428.027344"/>
     <use xlink:href="#ArialMT-70" x="511.328125"/>
     <use xlink:href="#ArialMT-20" x="566.943359"/>
     <use xlink:href="#ArialMT-6c" x="594.726562"/>
     <use xlink:href="#ArialMT-6f" x="616.943359"/>
     <use xlink:href="#ArialMT-73" x="672.558594"/>
     <use xlink:href="#ArialMT-73" x="722.558594"/>
     <use xlink:href="#ArialMT-3a" x="772.558594"/>
     <use xlink:href="#ArialMT-20" x="800.341797"/>
    </g>
    <!-- 0.11 MW -->
    <g transform="translate(631.844255 146.881658) scale(0.11 -0.11)">
     <use xlink:href="#ArialMT-30"/>
     <use xlink:href="#ArialMT-2e" x="55.615234"/>
     <use xlink:href="#ArialMT-31" x="83.398438"/>
     <use xlink:href="#ArialMT-31" x="131.638672"/>
     <use xlink:href="#ArialMT-20" x="187.253906"/>
     <use xlink:href="#ArialMT-4d" x="215.037109"/>
     <use xlink:href="#ArialMT-57" x="298.337891"/>
    </g>
   </g>
   <g id="text_21">
    <!-- 0.0% -->
    <g transform="translate(600.9295 191.583858) scale(0.11 -0.11)">
     <use xlink:href="#ArialMT-30"/>
     <use xlink:href="#ArialMT-2e" x="55.615234"/>
     <use xlink:href="#ArialMT-30" x="83.398438"/>
     <use xlink:href="#ArialMT-25" x="139.013672"/>
    </g>
   </g>
   <g id="text_22">
    <!-- Steam turbine loss:  -->
    <g transform="translate(611.912786 129.850976) scale(0.11 -0.11)">
     <use xlink:href="#ArialMT-53"/>
     <use xlink:href="#ArialMT-74" x="66.699219"/>
     <use xlink:href="#ArialMT-65" x="94.482422"/>
     <use xlink:href="#ArialMT-61" x="150.097656"/>
     <use xlink:href="#ArialMT-6d" x="205.712891"/>
     <use xlink:href="#ArialMT-20" x="289.013672"/>
     <use xlink:href="#ArialMT-74" x="316.796875"/>
     <use xlink:href="#ArialMT-75" x="344.580078"/>
     <use xlink:href="#ArialMT-72" x="400.195312"/>
     <use xlink:href="#ArialMT-62" x="433.496094"/>
     <use xlink:href="#ArialMT-69" x="489.111328"/>
     <use xlink:href="#ArialMT-6e" x="511.328125"/>
     <use xlink:href="#ArialMT-65" x="566.943359"/>
     <use xlink:href="#ArialMT-20" x="622.558594"/>
     <use xlink:href="#ArialMT-6c" x="650.341797"/>
     <use xlink:href="#ArialMT-6f" x="672.558594"/>
     <use xlink:href="#ArialMT-73" x="728.173828"/>
     <use xlink:href="#ArialMT-73" x="778.173828"/>
     <use xlink:href="#ArialMT-3a" x="828.173828"/>
     <use xlink:href="#ArialMT-20" x="855.957031"/>
    </g>
    <!-- 43.07 MW -->
    <g transform="translate(611.912786 141.485538) scale(0.11 -0.11)">
     <use xlink:href="#ArialMT-34"/>
     <use xlink:href="#ArialMT-33" x="55.615234"/>
     <use xlink:href="#ArialMT-2e" x="111.230469"/>
     <use xlink:href="#ArialMT-30" x="139.013672"/>
     <use xlink:href="#ArialMT-37" x="194.628906"/>
     <use xlink:href="#ArialMT-20" x="250.244141"/>
     <use xlink:href="#ArialMT-4d" x="278.027344"/>
     <use xlink:href="#ArialMT-57" x="361.328125"/>
    </g>
   </g>
   <g id="text_23">
    <!-- 5.5% -->
    <g transform="translate(590.057789 188.677082) scale(0.11 -0.11)">
     <use xlink:href="#ArialMT-35"/>
     <use xlink:href="#ArialMT-2e" x="55.615234"/>
     <use xlink:href="#ArialMT-35" x="83.398438"/>
     <use xlink:href="#ArialMT-25" x="139.013672"/>
    </g>
   </g>
   <g id="text_24">
    <!-- Total exergy balance: from heat input rate 777.65 MW -->
    <g transform="translate(460.574792 109.889532) scale(0.11 -0.11)">
     <use xlink:href="#ArialMT-54"/>
     <use xlink:href="#ArialMT-6f" x="49.958984"/>
     <use xlink:href="#ArialMT-74" x="105.574219"/>
     <use xlink:href="#ArialMT-61" x="133.357422"/>
     <use xlink:href="#ArialMT-6c" x="188.972656"/>
     <use xlink:href="#ArialMT-20" x="211.189453"/>
     <use xlink:href="#ArialMT-65" x="238.972656"/>
     <use xlink:href="#ArialMT-78" x="294.587891"/>
     <use xlink:href="#ArialMT-65" x="344.587891"/>
     <use xlink:href="#ArialMT-72" x="400.203125"/>
     <use xlink:href="#ArialMT-67" x="433.503906"/>
     <use xlink:href="#ArialMT-79" x="489.119141"/>
     <use xlink:href="#ArialMT-20" x="539.119141"/>
     <use xlink:href="#ArialMT-62" x="566.902344"/>
     <use xlink:href="#ArialMT-61" x="622.517578"/>
     <use xlink:href="#ArialMT-6c" x="678.132812"/>
     <use xlink:href="#ArialMT-61" x="700.349609"/>
     <use xlink:href="#ArialMT-6e" x="755.964844"/>
     <use xlink:href="#ArialMT-63" x="811.580078"/>
     <use xlink:href="#ArialMT-65" x="861.580078"/>
     <use xlink:href="#ArialMT-3a" x="917.195312"/>
     <use xlink:href="#ArialMT-20" x="944.978516"/>
     <use xlink:href="#ArialMT-66" x="972.761719"/>
     <use xlink:href="#ArialMT-72" x="1000.544922"/>
     <use xlink:href="#ArialMT-6f" x="1033.845703"/>
     <use xlink:href="#ArialMT-6d" x="1089.460938"/>
     <use xlink:href="#ArialMT-20" x="1172.761719"/>
     <use xlink:href="#ArialMT-68" x="1200.544922"/>
     <use xlink:href="#ArialMT-65" x="1256.160156"/>
     <use xlink:href="#ArialMT-61" x="1311.775391"/>
     <use xlink:href="#ArialMT-74" x="1367.390625"/>
     <use xlink:href="#ArialMT-20" x="1395.173828"/>
     <use xlink:href="#ArialMT-69" x="1422.957031"/>
     <use xlink:href="#ArialMT-6e" x="1445.173828"/>
     <use xlink:href="#ArialMT-70" x="1500.789062"/>
     <use xlink:href="#ArialMT-75" x="1556.404297"/>
     <use xlink:href="#ArialMT-74" x="1612.019531"/>
     <use xlink:href="#ArialMT-20" x="1639.802734"/>
     <use xlink:href="#ArialMT-72" x="1667.585938"/>
     <use xlink:href="#ArialMT-61" x="1700.886719"/>
     <use xlink:href="#ArialMT-74" x="1756.501953"/>
     <use xlink:href="#ArialMT-65" x="1784.285156"/>
     <use xlink:href="#ArialMT-20" x="1839.900391"/>
     <use xlink:href="#ArialMT-37" x="1867.683594"/>
     <use xlink:href="#ArialMT-37" x="1923.298828"/>
     <use xlink:href="#ArialMT-37" x="1978.914062"/>
     <use xlink:href="#ArialMT-2e" x="2034.529297"/>
     <use xlink:href="#ArialMT-36" x="2062.3125"/>
     <use xlink:href="#ArialMT-35" x="2117.927734"/>
     <use xlink:href="#ArialMT-20" x="2173.542969"/>
     <use xlink:href="#ArialMT-4d" x="2201.326172"/>
     <use xlink:href="#ArialMT-57" x="2284.626953"/>
    </g>
   </g>
  </g>
  <g id="text_25">
   <!-- Combined cycle gas turbine energy and exergy balances -->
   <g transform="translate(249.888171 16.809188) scale(0.132 -0.132)">
    <defs>
     <path id="Arial-BoldMT-43" d="M 3397 1684 
L 4294 1400 
Q 4088 650 3608 286 
Q 3128 -78 2391 -78 
Q 1478 -78 890 545 
Q 303 1169 303 2250 
Q 303 3394 893 4026 
Q 1484 4659 2447 4659 
Q 3288 4659 3813 4163 
Q 4125 3869 4281 3319 
L 3366 3100 
Q 3284 3456 3026 3662 
Q 2769 3869 2400 3869 
Q 1891 3869 1573 3503 
Q 1256 3138 1256 2319 
Q 1256 1450 1568 1081 
Q 1881 713 2381 713 
Q 2750 713 3015 947 
Q 3281 1181 3397 1684 
z
" transform="scale(0.015625)"/>
     <path id="Arial-BoldMT-6f" d="M 256 1706 
Q 256 2144 472 2553 
Q 688 2963 1083 3178 
Q 1478 3394 1966 3394 
Q 2719 3394 3200 2905 
Q 3681 2416 3681 1669 
Q 3681 916 3195 420 
Q 2709 -75 1972 -75 
Q 1516 -75 1102 131 
Q 688 338 472 736 
Q 256 1134 256 1706 
z
M 1156 1659 
Q 1156 1166 1390 903 
Q 1625 641 1969 641 
Q 2313 641 2545 903 
Q 2778 1166 2778 1666 
Q 2778 2153 2545 2415 
Q 2313 2678 1969 2678 
Q 1625 2678 1390 2415 
Q 1156 2153 1156 1659 
z
" transform="scale(0.015625)"/>
     <path id="Arial-BoldMT-6d" d="M 394 3319 
L 1203 3319 
L 1203 2866 
Q 1638 3394 2238 3394 
Q 2556 3394 2790 3262 
Q 3025 3131 3175 2866 
Q 3394 3131 3647 3262 
Q 3900 3394 4188 3394 
Q 4553 3394 4806 3245 
Q 5059 3097 5184 2809 
Q 5275 2597 5275 2122 
L 5275 0 
L 4397 0 
L 4397 1897 
Q 4397 2391 4306 2534 
Q 4184 2722 3931 2722 
Q 3747 2722 3584 2609 
Q 3422 2497 3350 2280 
Q 3278 2063 3278 1594 
L 3278 0 
L 2400 0 
L 2400 1819 
Q 2400 2303 2353 2443 
Q 2306 2584 2207 2653 
Q 2109 2722 1941 2722 
Q 1738 2722 1575 2612 
Q 1413 2503 1342 2297 
Q 1272 2091 1272 1613 
L 1272 0 
L 394 0 
L 394 3319 
z
" transform="scale(0.015625)"/>
     <path id="Arial-BoldMT-62" d="M 422 0 
L 422 4581 
L 1300 4581 
L 1300 2931 
Q 1706 3394 2263 3394 
Q 2869 3394 3266 2955 
Q 3663 2516 3663 1694 
Q 3663 844 3258 384 
Q 2853 -75 2275 -75 
Q 1991 -75 1714 67 
Q 1438 209 1238 488 
L 1238 0 
L 422 0 
z
M 1294 1731 
Q 1294 1216 1456 969 
Q 1684 619 2063 619 
Q 2353 619 2558 867 
Q 2763 1116 2763 1650 
Q 2763 2219 2556 2470 
Q 2350 2722 2028 2722 
Q 1713 2722 1503 2476 
Q 1294 2231 1294 1731 
z
" transform="scale(0.015625)"/>
     <path id="Arial-BoldMT-69" d="M 459 3769 
L 459 4581 
L 1338 4581 
L 1338 3769 
L 459 3769 
z
M 459 0 
L 459 3319 
L 1338 3319 
L 1338 0 
L 459 0 
z
" transform="scale(0.015625)"/>
     <path id="Arial-BoldMT-6e" d="M 3478 0 
L 2600 0 
L 2600 1694 
Q 2600 2231 2544 2389 
Q 2488 2547 2361 2634 
Q 2234 2722 2056 2722 
Q 1828 2722 1647 2597 
Q 1466 2472 1398 2265 
Q 1331 2059 1331 1503 
L 1331 0 
L 453 0 
L 453 3319 
L 1269 3319 
L 1269 2831 
Q 1703 3394 2363 3394 
Q 2653 3394 2893 3289 
Q 3134 3184 3257 3021 
Q 3381 2859 3429 2653 
Q 3478 2447 3478 2063 
L 3478 0 
z
" transform="scale(0.015625)"/>
     <path id="Arial-BoldMT-65" d="M 2381 1056 
L 3256 909 
Q 3088 428 2723 176 
Q 2359 -75 1813 -75 
Q 947 -75 531 491 
Q 203 944 203 1634 
Q 203 2459 634 2926 
Q 1066 3394 1725 3394 
Q 2466 3394 2894 2905 
Q 3322 2416 3303 1406 
L 1103 1406 
Q 1113 1016 1316 798 
Q 1519 581 1822 581 
Q 2028 581 2168 693 
Q 2309 806 2381 1056 
z
M 2431 1944 
Q 2422 2325 2234 2523 
Q 2047 2722 1778 2722 
Q 1491 2722 1303 2513 
Q 1116 2303 1119 1944 
L 2431 1944 
z
" transform="scale(0.015625)"/>
     <path id="Arial-BoldMT-64" d="M 3503 0 
L 2688 0 
L 2688 488 
Q 2484 203 2207 64 
Q 1931 -75 1650 -75 
Q 1078 -75 670 386 
Q 263 847 263 1672 
Q 263 2516 659 2955 
Q 1056 3394 1663 3394 
Q 2219 3394 2625 2931 
L 2625 4581 
L 3503 4581 
L 3503 0 
z
M 1159 1731 
Q 1159 1200 1306 963 
Q 1519 619 1900 619 
Q 2203 619 2415 876 
Q 2628 1134 2628 1647 
Q 2628 2219 2422 2470 
Q 2216 2722 1894 2722 
Q 1581 2722 1370 2473 
Q 1159 2225 1159 1731 
z
" transform="scale(0.015625)"/>
     <path id="Arial-BoldMT-20" transform="scale(0.015625)"/>
     <path id="Arial-BoldMT-63" d="M 3353 2338 
L 2488 2181 
Q 2444 2441 2289 2572 
Q 2134 2703 1888 2703 
Q 1559 2703 1364 2476 
Q 1169 2250 1169 1719 
Q 1169 1128 1367 884 
Q 1566 641 1900 641 
Q 2150 641 2309 783 
Q 2469 925 2534 1272 
L 3397 1125 
Q 3263 531 2881 228 
Q 2500 -75 1859 -75 
Q 1131 -75 698 384 
Q 266 844 266 1656 
Q 266 2478 700 2936 
Q 1134 3394 1875 3394 
Q 2481 3394 2839 3133 
Q 3197 2872 3353 2338 
z
" transform="scale(0.015625)"/>
     <path id="Arial-BoldMT-79" d="M 44 3319 
L 978 3319 
L 1772 963 
L 2547 3319 
L 3456 3319 
L 2284 125 
L 2075 -453 
Q 1959 -744 1854 -897 
Q 1750 -1050 1614 -1145 
Q 1478 -1241 1279 -1294 
Q 1081 -1347 831 -1347 
Q 578 -1347 334 -1294 
L 256 -606 
Q 463 -647 628 -647 
Q 934 -647 1081 -467 
Q 1228 -288 1306 -9 
L 44 3319 
z
" transform="scale(0.015625)"/>
     <path id="Arial-BoldMT-6c" d="M 459 0 
L 459 4581 
L 1338 4581 
L 1338 0 
L 459 0 
z
" transform="scale(0.015625)"/>
     <path id="Arial-BoldMT-67" d="M 378 -219 
L 1381 -341 
Q 1406 -516 1497 -581 
Q 1622 -675 1891 -675 
Q 2234 -675 2406 -572 
Q 2522 -503 2581 -350 
Q 2622 -241 2622 53 
L 2622 538 
Q 2228 0 1628 0 
Q 959 0 569 566 
Q 263 1013 263 1678 
Q 263 2513 664 2953 
Q 1066 3394 1663 3394 
Q 2278 3394 2678 2853 
L 2678 3319 
L 3500 3319 
L 3500 341 
Q 3500 -247 3403 -537 
Q 3306 -828 3131 -993 
Q 2956 -1159 2664 -1253 
Q 2372 -1347 1925 -1347 
Q 1081 -1347 728 -1058 
Q 375 -769 375 -325 
Q 375 -281 378 -219 
z
M 1163 1728 
Q 1163 1200 1367 954 
Q 1572 709 1872 709 
Q 2194 709 2416 961 
Q 2638 1213 2638 1706 
Q 2638 2222 2425 2472 
Q 2213 2722 1888 2722 
Q 1572 2722 1367 2476 
Q 1163 2231 1163 1728 
z
" transform="scale(0.015625)"/>
     <path id="Arial-BoldMT-61" d="M 1116 2306 
L 319 2450 
Q 453 2931 781 3162 
Q 1109 3394 1756 3394 
Q 2344 3394 2631 3255 
Q 2919 3116 3036 2902 
Q 3153 2688 3153 2116 
L 3144 1091 
Q 3144 653 3186 445 
Q 3228 238 3344 0 
L 2475 0 
Q 2441 88 2391 259 
Q 2369 338 2359 363 
Q 2134 144 1878 34 
Q 1622 -75 1331 -75 
Q 819 -75 523 203 
Q 228 481 228 906 
Q 228 1188 362 1408 
Q 497 1628 739 1745 
Q 981 1863 1438 1950 
Q 2053 2066 2291 2166 
L 2291 2253 
Q 2291 2506 2166 2614 
Q 2041 2722 1694 2722 
Q 1459 2722 1328 2630 
Q 1197 2538 1116 2306 
z
M 2291 1594 
Q 2122 1538 1756 1459 
Q 1391 1381 1278 1306 
Q 1106 1184 1106 997 
Q 1106 813 1243 678 
Q 1381 544 1594 544 
Q 1831 544 2047 700 
Q 2206 819 2256 991 
Q 2291 1103 2291 1419 
L 2291 1594 
z
" transform="scale(0.015625)"/>
     <path id="Arial-BoldMT-73" d="M 150 947 
L 1031 1081 
Q 1088 825 1259 692 
Q 1431 559 1741 559 
Q 2081 559 2253 684 
Q 2369 772 2369 919 
Q 2369 1019 2306 1084 
Q 2241 1147 2013 1200 
Q 950 1434 666 1628 
Q 272 1897 272 2375 
Q 272 2806 612 3100 
Q 953 3394 1669 3394 
Q 2350 3394 2681 3172 
Q 3013 2950 3138 2516 
L 2309 2363 
Q 2256 2556 2107 2659 
Q 1959 2763 1684 2763 
Q 1338 2763 1188 2666 
Q 1088 2597 1088 2488 
Q 1088 2394 1175 2328 
Q 1294 2241 1995 2081 
Q 2697 1922 2975 1691 
Q 3250 1456 3250 1038 
Q 3250 581 2869 253 
Q 2488 -75 1741 -75 
Q 1063 -75 667 200 
Q 272 475 150 947 
z
" transform="scale(0.015625)"/>
     <path id="Arial-BoldMT-74" d="M 1981 3319 
L 1981 2619 
L 1381 2619 
L 1381 1281 
Q 1381 875 1398 808 
Q 1416 741 1477 697 
Q 1538 653 1625 653 
Q 1747 653 1978 738 
L 2053 56 
Q 1747 -75 1359 -75 
Q 1122 -75 931 4 
Q 741 84 652 211 
Q 563 338 528 553 
Q 500 706 500 1172 
L 500 2619 
L 97 2619 
L 97 3319 
L 500 3319 
L 500 3978 
L 1381 4491 
L 1381 3319 
L 1981 3319 
z
" transform="scale(0.015625)"/>
     <path id="Arial-BoldMT-75" d="M 2644 0 
L 2644 497 
Q 2463 231 2167 78 
Q 1872 -75 1544 -75 
Q 1209 -75 943 72 
Q 678 219 559 484 
Q 441 750 441 1219 
L 441 3319 
L 1319 3319 
L 1319 1794 
Q 1319 1094 1367 936 
Q 1416 778 1544 686 
Q 1672 594 1869 594 
Q 2094 594 2272 717 
Q 2450 841 2515 1023 
Q 2581 1206 2581 1919 
L 2581 3319 
L 3459 3319 
L 3459 0 
L 2644 0 
z
" transform="scale(0.015625)"/>
     <path id="Arial-BoldMT-72" d="M 1300 0 
L 422 0 
L 422 3319 
L 1238 3319 
L 1238 2847 
Q 1447 3181 1614 3287 
Q 1781 3394 1994 3394 
Q 2294 3394 2572 3228 
L 2300 2463 
Q 2078 2606 1888 2606 
Q 1703 2606 1575 2504 
Q 1447 2403 1373 2137 
Q 1300 1872 1300 1025 
L 1300 0 
z
" transform="scale(0.015625)"/>
     <path id="Arial-BoldMT-78" d="M 38 0 
L 1234 1709 
L 88 3319 
L 1159 3319 
L 1747 2406 
L 2366 3319 
L 3397 3319 
L 2272 1747 
L 3500 0 
L 2422 0 
L 1747 1028 
L 1066 0 
L 38 0 
z
" transform="scale(0.015625)"/>
    </defs>
    <use xlink:href="#Arial-BoldMT-43"/>
    <use xlink:href="#Arial-BoldMT-6f" x="72.216797"/>
    <use xlink:href="#Arial-BoldMT-6d" x="133.300781"/>
    <use xlink:href="#Arial-BoldMT-62" x="222.216797"/>
    <use xlink:href="#Arial-BoldMT-69" x="283.300781"/>
    <use xlink:href="#Arial-BoldMT-6e" x="311.083984"/>
    <use xlink:href="#Arial-BoldMT-65" x="372.167969"/>
    <use xlink:href="#Arial-BoldMT-64" x="427.783203"/>
    <use xlink:href="#Arial-BoldMT-20" x="488.867188"/>
    <use xlink:href="#Arial-BoldMT-63" x="516.650391"/>
    <use xlink:href="#Arial-BoldMT-79" x="572.265625"/>
    <use xlink:href="#Arial-BoldMT-63" x="627.880859"/>
    <use xlink:href="#Arial-BoldMT-6c" x="683.496094"/>
    <use xlink:href="#Arial-BoldMT-65" x="711.279297"/>
    <use xlink:href="#Arial-BoldMT-20" x="766.894531"/>
    <use xlink:href="#Arial-BoldMT-67" x="794.677734"/>
    <use xlink:href="#Arial-BoldMT-61" x="855.761719"/>
    <use xlink:href="#Arial-BoldMT-73" x="911.376953"/>
    <use xlink:href="#Arial-BoldMT-20" x="966.992188"/>
    <use xlink:href="#Arial-BoldMT-74" x="994.775391"/>
    <use xlink:href="#Arial-BoldMT-75" x="1028.076172"/>
    <use xlink:href="#Arial-BoldMT-72" x="1089.160156"/>
    <use xlink:href="#Arial-BoldMT-62" x="1128.076172"/>
    <use xlink:href="#Arial-BoldMT-69" x="1189.160156"/>
    <use xlink:href="#Arial-BoldMT-6e" x="1216.943359"/>
    <use xlink:href="#Arial-BoldMT-65" x="1278.027344"/>
    <use xlink:href="#Arial-BoldMT-20" x="1333.642578"/>
    <use xlink:href="#Arial-BoldMT-65" x="1361.425781"/>
    <use xlink:href="#Arial-BoldMT-6e" x="1417.041016"/>
    <use xlink:href="#Arial-BoldMT-65" x="1478.125"/>
    <use xlink:href="#Arial-BoldMT-72" x="1533.740234"/>
    <use xlink:href="#Arial-BoldMT-67" x="1572.65625"/>
    <use xlink:href="#Arial-BoldMT-79" x="1633.740234"/>
    <use xlink:href="#Arial-BoldMT-20" x="1689.355469"/>
    <use xlink:href="#Arial-BoldMT-61" x="1717.138672"/>
    <use xlink:href="#Arial-BoldMT-6e" x="1772.753906"/>
    <use xlink:href="#Arial-BoldMT-64" x="1833.837891"/>
    <use xlink:href="#Arial-BoldMT-20" x="1894.921875"/>
    <use xlink:href="#Arial-BoldMT-65" x="1922.705078"/>
    <use xlink:href="#Arial-BoldMT-78" x="1978.320312"/>
    <use xlink:href="#Arial-BoldMT-65" x="2033.935547"/>
    <use xlink:href="#Arial-BoldMT-72" x="2089.550781"/>
    <use xlink:href="#Arial-BoldMT-67" x="2128.466797"/>
    <use xlink:href="#Arial-BoldMT-79" x="2189.550781"/>
    <use xlink:href="#Arial-BoldMT-20" x="2245.166016"/>
    <use xlink:href="#Arial-BoldMT-62" x="2272.949219"/>
    <use xlink:href="#Arial-BoldMT-61" x="2334.033203"/>
    <use xlink:href="#Arial-BoldMT-6c" x="2389.648438"/>
    <use xlink:href="#Arial-BoldMT-61" x="2417.431641"/>
    <use xlink:href="#Arial-BoldMT-6e" x="2473.046875"/>
    <use xlink:href="#Arial-BoldMT-63" x="2534.130859"/>
    <use xlink:href="#Arial-BoldMT-65" x="2589.746094"/>
    <use xlink:href="#Arial-BoldMT-73" x="2645.361328"/>
   </g>
   <!-- Thermal efficiency: 51.93% -->
   <g transform="translate(343.77214 31.1184) scale(0.132 -0.132)">
    <defs>
     <path id="Arial-BoldMT-54" d="M 1497 0 
L 1497 3806 
L 138 3806 
L 138 4581 
L 3778 4581 
L 3778 3806 
L 2422 3806 
L 2422 0 
L 1497 0 
z
" transform="scale(0.015625)"/>
     <path id="Arial-BoldMT-68" d="M 1334 4581 
L 1334 2897 
Q 1759 3394 2350 3394 
Q 2653 3394 2897 3281 
Q 3141 3169 3264 2994 
Q 3388 2819 3433 2606 
Q 3478 2394 3478 1947 
L 3478 0 
L 2600 0 
L 2600 1753 
Q 2600 2275 2550 2415 
Q 2500 2556 2373 2639 
Q 2247 2722 2056 2722 
Q 1838 2722 1666 2615 
Q 1494 2509 1414 2295 
Q 1334 2081 1334 1663 
L 1334 0 
L 456 0 
L 456 4581 
L 1334 4581 
z
" transform="scale(0.015625)"/>
     <path id="Arial-BoldMT-66" d="M 75 3319 
L 563 3319 
L 563 3569 
Q 563 3988 652 4194 
Q 741 4400 980 4529 
Q 1219 4659 1584 4659 
Q 1959 4659 2319 4547 
L 2200 3934 
Q 1991 3984 1797 3984 
Q 1606 3984 1523 3895 
Q 1441 3806 1441 3553 
L 1441 3319 
L 2097 3319 
L 2097 2628 
L 1441 2628 
L 1441 0 
L 563 0 
L 563 2628 
L 75 2628 
L 75 3319 
z
" transform="scale(0.015625)"/>
     <path id="Arial-BoldMT-3a" d="M 628 2441 
L 628 3319 
L 1506 3319 
L 1506 2441 
L 628 2441 
z
M 628 0 
L 628 878 
L 1506 878 
L 1506 0 
L 628 0 
z
" transform="scale(0.015625)"/>
     <path id="Arial-BoldMT-35" d="M 284 1178 
L 1159 1269 
Q 1197 972 1381 798 
Q 1566 625 1806 625 
Q 2081 625 2272 848 
Q 2463 1072 2463 1522 
Q 2463 1944 2273 2155 
Q 2084 2366 1781 2366 
Q 1403 2366 1103 2031 
L 391 2134 
L 841 4519 
L 3163 4519 
L 3163 3697 
L 1506 3697 
L 1369 2919 
Q 1663 3066 1969 3066 
Q 2553 3066 2959 2641 
Q 3366 2216 3366 1538 
Q 3366 972 3038 528 
Q 2591 -78 1797 -78 
Q 1163 -78 763 262 
Q 363 603 284 1178 
z
" transform="scale(0.015625)"/>
     <path id="Arial-BoldMT-31" d="M 2519 0 
L 1641 0 
L 1641 3309 
Q 1159 2859 506 2644 
L 506 3441 
Q 850 3553 1253 3867 
Q 1656 4181 1806 4600 
L 2519 4600 
L 2519 0 
z
" transform="scale(0.015625)"/>
     <path id="Arial-BoldMT-2e" d="M 459 0 
L 459 878 
L 1338 878 
L 1338 0 
L 459 0 
z
" transform="scale(0.015625)"/>
     <path id="Arial-BoldMT-39" d="M 291 1059 
L 1141 1153 
Q 1172 894 1303 769 
Q 1434 644 1650 644 
Q 1922 644 2112 894 
Q 2303 1144 2356 1931 
Q 2025 1547 1528 1547 
Q 988 1547 595 1964 
Q 203 2381 203 3050 
Q 203 3747 617 4173 
Q 1031 4600 1672 4600 
Q 2369 4600 2816 4061 
Q 3263 3522 3263 2288 
Q 3263 1031 2797 475 
Q 2331 -81 1584 -81 
Q 1047 -81 715 205 
Q 384 491 291 1059 
z
M 2278 2978 
Q 2278 3403 2083 3637 
Q 1888 3872 1631 3872 
Q 1388 3872 1227 3680 
Q 1066 3488 1066 3050 
Q 1066 2606 1241 2398 
Q 1416 2191 1678 2191 
Q 1931 2191 2104 2391 
Q 2278 2591 2278 2978 
z
" transform="scale(0.015625)"/>
     <path id="Arial-BoldMT-33" d="M 241 1216 
L 1091 1319 
Q 1131 994 1309 822 
Q 1488 650 1741 650 
Q 2013 650 2198 856 
Q 2384 1063 2384 1413 
Q 2384 1744 2206 1937 
Q 2028 2131 1772 2131 
Q 1603 2131 1369 2066 
L 1466 2781 
Q 1822 2772 2009 2936 
Q 2197 3100 2197 3372 
Q 2197 3603 2059 3740 
Q 1922 3878 1694 3878 
Q 1469 3878 1309 3722 
Q 1150 3566 1116 3266 
L 306 3403 
Q 391 3819 561 4067 
Q 731 4316 1036 4458 
Q 1341 4600 1719 4600 
Q 2366 4600 2756 4188 
Q 3078 3850 3078 3425 
Q 3078 2822 2419 2463 
Q 2813 2378 3048 2084 
Q 3284 1791 3284 1375 
Q 3284 772 2843 347 
Q 2403 -78 1747 -78 
Q 1125 -78 715 280 
Q 306 638 241 1216 
z
" transform="scale(0.015625)"/>
     <path id="Arial-BoldMT-25" d="M 278 3450 
Q 278 4066 548 4362 
Q 819 4659 1281 4659 
Q 1759 4659 2029 4364 
Q 2300 4069 2300 3450 
Q 2300 2834 2029 2537 
Q 1759 2241 1297 2241 
Q 819 2241 548 2536 
Q 278 2831 278 3450 
z
M 963 3456 
Q 963 3009 1066 2856 
Q 1144 2744 1281 2744 
Q 1422 2744 1500 2856 
Q 1600 3009 1600 3456 
Q 1600 3903 1500 4053 
Q 1422 4169 1281 4169 
Q 1144 4169 1066 4056 
Q 963 3903 963 3456 
z
M 1950 -175 
L 1300 -175 
L 3741 4659 
L 4372 4659 
L 1950 -175 
z
M 3369 1028 
Q 3369 1644 3639 1941 
Q 3909 2238 4378 2238 
Q 4850 2238 5120 1941 
Q 5391 1644 5391 1028 
Q 5391 409 5120 112 
Q 4850 -184 4388 -184 
Q 3909 -184 3639 112 
Q 3369 409 3369 1028 
z
M 4053 1031 
Q 4053 584 4156 434 
Q 4234 319 4372 319 
Q 4513 319 4588 431 
Q 4691 584 4691 1031 
Q 4691 1478 4591 1631 
Q 4513 1744 4372 1744 
Q 4231 1744 4156 1631 
Q 4053 1478 4053 1031 
z
" transform="scale(0.015625)"/>
    </defs>
    <use xlink:href="#Arial-BoldMT-54"/>
    <use xlink:href="#Arial-BoldMT-68" x="61.083984"/>
    <use xlink:href="#Arial-BoldMT-65" x="122.167969"/>
    <use xlink:href="#Arial-BoldMT-72" x="177.783203"/>
    <use xlink:href="#Arial-BoldMT-6d" x="216.699219"/>
    <use xlink:href="#Arial-BoldMT-61" x="305.615234"/>
    <use xlink:href="#Arial-BoldMT-6c" x="361.230469"/>
    <use xlink:href="#Arial-BoldMT-20" x="389.013672"/>
    <use xlink:href="#Arial-BoldMT-65" x="416.796875"/>
    <use xlink:href="#Arial-BoldMT-66" x="472.412109"/>
    <use xlink:href="#Arial-BoldMT-66" x="505.712891"/>
    <use xlink:href="#Arial-BoldMT-69" x="539.013672"/>
    <use xlink:href="#Arial-BoldMT-63" x="566.796875"/>
    <use xlink:href="#Arial-BoldMT-69" x="622.412109"/>
    <use xlink:href="#Arial-BoldMT-65" x="650.195312"/>
    <use xlink:href="#Arial-BoldMT-6e" x="705.810547"/>
    <use xlink:href="#Arial-BoldMT-63" x="766.894531"/>
    <use xlink:href="#Arial-BoldMT-79" x="822.509766"/>
    <use xlink:href="#Arial-BoldMT-3a" x="878.125"/>
    <use xlink:href="#Arial-BoldMT-20" x="911.425781"/>
    <use xlink:href="#Arial-BoldMT-35" x="939.208984"/>
    <use xlink:href="#Arial-BoldMT-31" x="994.824219"/>
    <use xlink:href="#Arial-BoldMT-2e" x="1050.439453"/>
    <use xlink:href="#Arial-BoldMT-39" x="1078.222656"/>
    <use xlink:href="#Arial-BoldMT-33" x="1133.837891"/>
    <use xlink:href="#Arial-BoldMT-25" x="1189.453125"/>
   </g>
   <!-- Maximum possible efficiency: 74.39% -->
   <g transform="translate(310.40089 45.427613) scale(0.132 -0.132)">
    <defs>
     <path id="Arial-BoldMT-4d" d="M 453 0 
L 453 4581 
L 1838 4581 
L 2669 1456 
L 3491 4581 
L 4878 4581 
L 4878 0 
L 4019 0 
L 4019 3606 
L 3109 0 
L 2219 0 
L 1313 3606 
L 1313 0 
L 453 0 
z
" transform="scale(0.015625)"/>
     <path id="Arial-BoldMT-70" d="M 434 3319 
L 1253 3319 
L 1253 2831 
Q 1413 3081 1684 3237 
Q 1956 3394 2288 3394 
Q 2866 3394 3269 2941 
Q 3672 2488 3672 1678 
Q 3672 847 3265 386 
Q 2859 -75 2281 -75 
Q 2006 -75 1782 34 
Q 1559 144 1313 409 
L 1313 -1263 
L 434 -1263 
L 434 3319 
z
M 1303 1716 
Q 1303 1156 1525 889 
Q 1747 622 2066 622 
Q 2372 622 2575 867 
Q 2778 1113 2778 1672 
Q 2778 2194 2568 2447 
Q 2359 2700 2050 2700 
Q 1728 2700 1515 2451 
Q 1303 2203 1303 1716 
z
" transform="scale(0.015625)"/>
     <path id="Arial-BoldMT-37" d="M 272 3703 
L 272 4519 
L 3275 4519 
L 3275 3881 
Q 2903 3516 2518 2831 
Q 2134 2147 1932 1376 
Q 1731 606 1734 0 
L 888 0 
Q 909 950 1279 1937 
Q 1650 2925 2269 3703 
L 272 3703 
z
" transform="scale(0.015625)"/>
     <path id="Arial-BoldMT-34" d="M 1994 0 
L 1994 922 
L 119 922 
L 119 1691 
L 2106 4600 
L 2844 4600 
L 2844 1694 
L 3413 1694 
L 3413 922 
L 2844 922 
L 2844 0 
L 1994 0 
z
M 1994 1694 
L 1994 3259 
L 941 1694 
L 1994 1694 
z
" transform="scale(0.015625)"/>
    </defs>
    <use xlink:href="#Arial-BoldMT-4d"/>
    <use xlink:href="#Arial-BoldMT-61" x="83.300781"/>
    <use xlink:href="#Arial-BoldMT-78" x="138.916016"/>
    <use xlink:href="#Arial-BoldMT-69" x="194.53125"/>
    <use xlink:href="#Arial-BoldMT-6d" x="222.314453"/>
    <use xlink:href="#Arial-BoldMT-75" x="311.230469"/>
    <use xlink:href="#Arial-BoldMT-6d" x="372.314453"/>
    <use xlink:href="#Arial-BoldMT-20" x="461.230469"/>
    <use xlink:href="#Arial-BoldMT-70" x="489.013672"/>
    <use xlink:href="#Arial-BoldMT-6f" x="550.097656"/>
    <use xlink:href="#Arial-BoldMT-73" x="611.181641"/>
    <use xlink:href="#Arial-BoldMT-73" x="666.796875"/>
    <use xlink:href="#Arial-BoldMT-69" x="722.412109"/>
    <use xlink:href="#Arial-BoldMT-62" x="750.195312"/>
    <use xlink:href="#Arial-BoldMT-6c" x="811.279297"/>
    <use xlink:href="#Arial-BoldMT-65" x="839.0625"/>
    <use xlink:href="#Arial-BoldMT-20" x="894.677734"/>
    <use xlink:href="#Arial-BoldMT-65" x="922.460938"/>
    <use xlink:href="#Arial-BoldMT-66" x="978.076172"/>
    <use xlink:href="#Arial-BoldMT-66" x="1011.376953"/>
    <use xlink:href="#Arial-BoldMT-69" x="1044.677734"/>
    <use xlink:href="#Arial-BoldMT-63" x="1072.460938"/>
    <use xlink:href="#Arial-BoldMT-69" x="1128.076172"/>
    <use xlink:href="#Arial-BoldMT-65" x="1155.859375"/>
    <use xlink:href="#Arial-BoldMT-6e" x="1211.474609"/>
    <use xlink:href="#Arial-BoldMT-63" x="1272.558594"/>
    <use xlink:href="#Arial-BoldMT-79" x="1328.173828"/>
    <use xlink:href="#Arial-BoldMT-3a" x="1383.789062"/>
    <use xlink:href="#Arial-BoldMT-20" x="1417.089844"/>
    <use xlink:href="#Arial-BoldMT-37" x="1444.873047"/>
    <use xlink:href="#Arial-BoldMT-34" x="1500.488281"/>
    <use xlink:href="#Arial-BoldMT-2e" x="1556.103516"/>
    <use xlink:href="#Arial-BoldMT-33" x="1583.886719"/>
    <use xlink:href="#Arial-BoldMT-39" x="1639.501953"/>
    <use xlink:href="#Arial-BoldMT-25" x="1695.117188"/>
   </g>
   <!-- Exergy efficiency: 69.80% -->
   <g transform="translate(347.433077 59.736825) scale(0.132 -0.132)">
    <defs>
     <path id="Arial-BoldMT-45" d="M 466 0 
L 466 4581 
L 3863 4581 
L 3863 3806 
L 1391 3806 
L 1391 2791 
L 3691 2791 
L 3691 2019 
L 1391 2019 
L 1391 772 
L 3950 772 
L 3950 0 
L 466 0 
z
" transform="scale(0.015625)"/>
     <path id="Arial-BoldMT-36" d="M 3247 3459 
L 2397 3366 
Q 2366 3628 2234 3753 
Q 2103 3878 1894 3878 
Q 1616 3878 1423 3628 
Q 1231 3378 1181 2588 
Q 1509 2975 1997 2975 
Q 2547 2975 2939 2556 
Q 3331 2138 3331 1475 
Q 3331 772 2918 347 
Q 2506 -78 1859 -78 
Q 1166 -78 719 461 
Q 272 1000 272 2228 
Q 272 3488 737 4044 
Q 1203 4600 1947 4600 
Q 2469 4600 2811 4308 
Q 3153 4016 3247 3459 
z
M 1256 1544 
Q 1256 1116 1453 883 
Q 1650 650 1903 650 
Q 2147 650 2309 840 
Q 2472 1031 2472 1466 
Q 2472 1913 2297 2120 
Q 2122 2328 1859 2328 
Q 1606 2328 1431 2129 
Q 1256 1931 1256 1544 
z
" transform="scale(0.015625)"/>
     <path id="Arial-BoldMT-38" d="M 1025 2472 
Q 684 2616 529 2867 
Q 375 3119 375 3419 
Q 375 3931 733 4265 
Q 1091 4600 1750 4600 
Q 2403 4600 2764 4265 
Q 3125 3931 3125 3419 
Q 3125 3100 2959 2851 
Q 2794 2603 2494 2472 
Q 2875 2319 3073 2025 
Q 3272 1731 3272 1347 
Q 3272 713 2867 316 
Q 2463 -81 1791 -81 
Q 1166 -81 750 247 
Q 259 634 259 1309 
Q 259 1681 443 1992 
Q 628 2303 1025 2472 
z
M 1206 3356 
Q 1206 3094 1354 2947 
Q 1503 2800 1750 2800 
Q 2000 2800 2150 2948 
Q 2300 3097 2300 3359 
Q 2300 3606 2151 3754 
Q 2003 3903 1759 3903 
Q 1506 3903 1356 3753 
Q 1206 3603 1206 3356 
z
M 1125 1394 
Q 1125 1031 1311 828 
Q 1497 625 1775 625 
Q 2047 625 2225 820 
Q 2403 1016 2403 1384 
Q 2403 1706 2222 1901 
Q 2041 2097 1763 2097 
Q 1441 2097 1283 1875 
Q 1125 1653 1125 1394 
z
" transform="scale(0.015625)"/>
     <path id="Arial-BoldMT-30" d="M 1756 4600 
Q 2422 4600 2797 4125 
Q 3244 3563 3244 2259 
Q 3244 959 2794 391 
Q 2422 -78 1756 -78 
Q 1088 -78 678 436 
Q 269 950 269 2269 
Q 269 3563 719 4131 
Q 1091 4600 1756 4600 
z
M 1756 3872 
Q 1597 3872 1472 3770 
Q 1347 3669 1278 3406 
Q 1188 3066 1188 2259 
Q 1188 1453 1269 1151 
Q 1350 850 1473 750 
Q 1597 650 1756 650 
Q 1916 650 2041 751 
Q 2166 853 2234 1116 
Q 2325 1453 2325 2259 
Q 2325 3066 2244 3367 
Q 2163 3669 2039 3770 
Q 1916 3872 1756 3872 
z
" transform="scale(0.015625)"/>
    </defs>
    <use xlink:href="#Arial-BoldMT-45"/>
    <use xlink:href="#Arial-BoldMT-78" x="66.699219"/>
    <use xlink:href="#Arial-BoldMT-65" x="122.314453"/>
    <use xlink:href="#Arial-BoldMT-72" x="177.929688"/>
    <use xlink:href="#Arial-BoldMT-67" x="216.845703"/>
    <use xlink:href="#Arial-BoldMT-79" x="277.929688"/>
    <use xlink:href="#Arial-BoldMT-20" x="333.544922"/>
    <use xlink:href="#Arial-BoldMT-65" x="361.328125"/>
    <use xlink:href="#Arial-BoldMT-66" x="416.943359"/>
    <use xlink:href="#Arial-BoldMT-66" x="450.244141"/>
    <use xlink:href="#Arial-BoldMT-69" x="483.544922"/>
    <use xlink:href="#Arial-BoldMT-63" x="511.328125"/>
    <use xlink:href="#Arial-BoldMT-69" x="566.943359"/>
    <use xlink:href="#Arial-BoldMT-65" x="594.726562"/>
    <use xlink:href="#Arial-BoldMT-6e" x="650.341797"/>
    <use xlink:href="#Arial-BoldMT-63" x="711.425781"/>
    <use xlink:href="#Arial-BoldMT-79" x="767.041016"/>
    <use xlink:href="#Arial-BoldMT-3a" x="822.65625"/>
    <use xlink:href="#Arial-BoldMT-20" x="855.957031"/>
    <use xlink:href="#Arial-BoldMT-36" x="883.740234"/>
    <use xlink:href="#Arial-BoldMT-39" x="939.355469"/>
    <use xlink:href="#Arial-BoldMT-2e" x="994.970703"/>
    <use xlink:href="#Arial-BoldMT-38" x="1022.753906"/>
    <use xlink:href="#Arial-BoldMT-30" x="1078.369141"/>
    <use xlink:href="#Arial-BoldMT-25" x="1133.984375"/>
   </g>
  </g>
 </g>
</svg>
